<svg version="1.1" id="Layer_1" xmlns="http://www.w3.org/2000/svg" xmlns:xlink="http://www.w3.org/1999/xlink" x="0px" y="0px"
	 width="100%" viewBox="0 0 1024 1024" enable-background="new 0 0 1024 1024" xml:space="preserve">
<path fill="#000000" opacity="1.000000" stroke="none" 
	d="
M650.000000,1025.000000 
	C433.333344,1025.000000 217.166672,1025.000000 1.000000,1025.000000 
	C1.000000,683.666687 1.000000,342.333344 1.000000,1.000000 
	C342.333344,1.000000 683.666687,1.000000 1025.000000,1.000000 
	C1025.000000,342.333344 1025.000000,683.666687 1025.000000,1025.000000 
	C900.166687,1025.000000 775.333313,1025.000000 650.000000,1025.000000 
M494.162476,489.870789 
	C494.371552,489.579407 494.580597,489.288025 495.027679,488.483978 
	C495.396606,488.080811 495.765503,487.677673 496.834015,487.209106 
	C498.291321,485.834869 499.748596,484.460632 501.815125,482.827209 
	C506.919220,478.100067 512.064453,473.416412 517.118286,468.636139 
	C525.715454,460.504333 534.300049,452.358276 542.806213,444.131592 
	C551.344788,435.873566 559.723083,427.449524 568.277588,419.208221 
	C578.112854,409.733002 588.145691,400.462250 597.945068,390.950653 
	C610.614075,378.653778 623.160461,366.230011 635.687805,353.788544 
	C636.982727,352.502502 637.525146,350.425415 638.874756,349.234131 
	C642.472168,346.058685 646.319519,343.166382 650.707825,339.912598 
	C653.208557,337.308899 655.709229,334.705200 658.858582,331.839569 
	C659.571655,331.323700 660.284668,330.807831 661.530029,330.021057 
	C663.837585,327.744598 666.145142,325.468109 668.913025,322.741577 
	C678.914429,313.262970 688.915771,303.784332 699.464172,294.037384 
	C705.527466,288.322632 711.590820,282.607880 718.723267,275.885437 
	C718.723267,437.133026 718.723267,596.762939 718.723267,756.364685 
	C732.010986,756.364685 744.782288,756.364685 757.757080,756.364685 
	C757.757080,592.122925 757.757080,428.120209 757.757080,264.023102 
	C756.299744,264.023102 755.148987,264.023102 753.501160,263.873840 
	C753.334778,263.921295 753.168396,263.968719 752.080444,263.831329 
	C733.053772,263.909424 714.027161,263.987488 694.232727,263.914001 
	C692.221680,264.828003 689.776794,265.286041 688.264893,266.724670 
	C666.597107,287.342346 645.039978,308.076538 623.516174,328.844849 
	C622.043091,330.266174 621.046509,332.181274 619.954468,333.957153 
	C619.954468,333.957153 619.865417,333.830170 619.158813,333.880219 
	C609.847839,342.609009 600.528687,351.329102 591.254333,360.096588 
	C590.860840,360.468567 590.882446,361.279541 590.019592,361.811859 
	C585.992737,365.348480 581.834656,368.749512 577.988770,372.473053 
	C575.716797,374.672699 573.938904,377.382629 571.281006,380.097046 
	C569.955139,381.013062 568.481995,381.773712 567.326233,382.869141 
	C556.203003,393.411865 545.160950,404.040283 534.039673,414.585052 
	C524.417969,423.708038 514.723694,432.754486 504.808685,441.224487 
	C487.882233,425.307251 471.004486,409.337738 454.003601,393.500397 
	C447.847900,387.765961 441.397583,382.347809 434.830719,376.173187 
	C433.594940,375.021851 432.359192,373.870514 430.893982,372.102905 
	C393.039612,336.570557 355.192474,301.030487 317.290466,265.548981 
	C316.312134,264.633087 314.735260,263.862823 313.434814,263.858612 
	C293.292847,263.793304 273.150482,263.866119 252.503342,263.684326 
	C252.329315,263.743805 252.155273,263.803314 251.024597,263.960449 
	C250.881790,264.915955 250.615356,265.871307 250.614212,266.826996 
	C250.582932,292.989227 250.576294,319.151459 250.570435,345.313721 
	C250.543365,465.961090 250.517395,586.608459 250.492157,707.255859 
	C250.488754,723.549072 250.491669,739.842285 250.491669,756.349854 
	C263.599274,756.349854 276.179352,756.349854 289.337891,756.349854 
	C289.337891,596.908325 289.337891,437.780304 289.337891,277.857971 
	C302.208435,289.870361 314.336395,301.262146 326.545319,312.566528 
	C342.296570,327.150848 358.112579,341.665253 374.138733,356.828125 
	C377.056885,359.310089 379.975037,361.792084 383.101196,364.890900 
	C388.040466,369.325317 392.979736,373.759735 398.166870,378.801361 
	C401.233521,381.577057 404.327698,384.323029 407.360901,387.134796 
	C413.073334,392.430206 418.709320,397.808594 424.453369,403.069244 
	C431.095917,409.152679 437.820740,415.146393 444.758820,421.776245 
	C445.551758,422.500885 446.344727,423.225494 447.169617,424.567017 
	C447.131012,424.769287 447.092377,424.971527 446.435852,425.407684 
	C444.146271,427.625702 441.856659,429.843689 439.157043,432.160187 
	C439.157043,432.160187 438.975006,432.540527 438.416626,432.881378 
	C437.749420,434.034302 437.082245,435.187256 436.403046,436.361023 
	C407.925446,410.119171 380.468811,384.818115 352.045990,358.626770 
	C352.045990,364.838959 352.045990,369.419769 351.873566,374.923950 
	C351.888885,386.242981 351.899750,397.561981 351.920349,408.881012 
	C351.977570,440.335052 352.038849,471.789062 351.935699,504.266296 
	C351.992981,509.742615 352.050262,515.218933 351.937653,521.434937 
	C351.991394,526.957031 352.045166,532.479187 351.927826,538.659851 
	C351.985138,539.106079 352.042450,539.552307 351.921967,540.921143 
	C351.982269,568.947815 352.042572,596.974426 351.929352,625.924133 
	C351.989929,642.183655 352.050507,658.443237 351.941223,675.414856 
	C351.971039,699.389587 352.000854,723.364380 351.849823,748.203125 
	C351.849823,750.997437 351.849823,753.791809 351.849823,756.291626 
	C365.553772,756.291626 378.853027,756.291626 392.560028,756.291626 
	C392.560028,751.431152 392.571594,747.288391 392.558319,743.145752 
	C392.377533,686.706421 392.193390,630.267151 392.009766,573.827820 
	C391.995850,569.552002 391.979584,565.276245 392.040222,560.107117 
	C392.055023,557.738586 392.069824,555.369995 392.465485,552.470154 
	C395.307739,555.044800 398.219543,557.547180 400.980804,560.205933 
	C417.175903,575.799805 433.399384,591.365112 449.475311,607.081177 
	C455.624451,613.092712 461.408875,619.477356 467.328156,625.659241 
	C517.315491,576.550903 566.511414,528.220032 616.056030,479.546570 
	C616.056030,484.768372 615.483276,489.143707 616.211304,493.290710 
	C616.996094,497.760742 616.304871,501.402893 612.878662,505.051147 
	C605.565125,512.358032 598.251526,519.664856 590.313904,527.212830 
	C584.759338,532.759094 579.204773,538.305298 573.046448,544.087280 
	C541.915527,574.658813 510.784546,605.230347 479.392151,636.058655 
	C482.167633,638.644531 484.562500,640.875793 487.083160,643.620728 
	C487.373993,643.789551 487.664795,643.958374 488.238373,644.704895 
	C489.812744,646.163025 491.387115,647.621155 493.125793,649.712219 
	C494.024567,650.272339 494.923309,650.832520 496.063446,651.991516 
	C498.866882,654.796997 501.670288,657.602478 505.000793,660.935364 
	C508.131104,657.259399 511.182037,653.676636 514.824707,649.837402 
	C516.275330,648.246704 517.725952,646.655945 519.810120,644.845764 
	C524.160950,640.744873 528.511780,636.643982 533.411621,632.231079 
	C546.712402,619.224915 560.032349,606.238281 573.286804,593.185120 
	C574.757446,591.736755 575.854675,589.909180 577.865845,588.150085 
	C579.126892,586.593445 580.240417,584.883240 581.673828,583.506042 
	C588.765442,576.692383 595.941650,569.966736 603.755127,563.028931 
	C606.523926,560.064209 609.292725,557.099487 612.713989,553.880310 
	C613.788818,553.209229 614.863586,552.538208 616.618042,551.442810 
	C616.618042,620.618835 616.618042,688.686157 616.618042,756.486450 
	C629.917786,756.486450 642.789307,756.486450 655.753296,756.486450 
	C655.753296,752.970398 655.753296,749.987000 655.947876,746.344604 
	C655.883301,745.895813 655.818726,745.447083 655.944275,744.173340 
	C655.874573,734.115906 655.804932,724.058533 655.914551,713.106934 
	C655.844177,710.071228 655.773743,707.035522 655.899536,703.080811 
	C655.895691,628.865112 655.900269,554.649353 655.882874,480.433655 
	C655.877625,457.975372 655.811462,435.517090 655.842468,412.470520 
	C655.252686,412.655090 654.662903,412.839691 653.563965,413.462524 
	C651.165039,415.912994 648.766174,418.363464 645.776672,421.031952 
	C642.839233,423.989929 639.901733,426.947906 636.333069,430.152710 
	C631.065063,435.435059 625.796997,440.717438 620.121277,446.127747 
	C620.121277,446.127747 619.953735,446.520813 619.438843,446.738678 
	C618.846680,447.443176 618.254517,448.147675 617.105835,449.064758 
	C616.608948,449.665985 616.112061,450.267212 614.998779,451.072632 
	C613.186279,452.982635 611.373718,454.892639 609.169983,456.857391 
	C608.909424,457.004761 608.794739,457.227264 608.164124,457.704651 
	C607.666382,458.373993 607.168579,459.043304 606.894104,459.910706 
	C606.894104,459.910706 606.704285,459.680389 606.022949,459.781708 
	C602.712524,463.161469 599.402100,466.541229 595.231323,470.370270 
	C588.430481,477.088379 581.629639,483.806519 574.203918,490.829895 
	C572.942261,492.190857 571.680542,493.551788 569.936279,495.112854 
	C569.235168,495.874542 568.534058,496.636230 567.203979,497.716156 
	C552.606689,512.008240 537.990417,526.280945 523.417908,540.598206 
	C510.871765,552.924561 498.375488,565.301758 485.249146,577.938416 
	C483.166168,576.959778 481.083191,575.981140 478.741180,574.381042 
	C473.600922,569.537476 468.460663,564.693909 463.039032,559.195618 
	C460.128296,556.538757 457.217560,553.881958 454.143402,550.769043 
	C453.768433,550.499023 453.393433,550.229004 452.795013,549.351929 
	C451.499329,548.234924 450.203644,547.117920 448.741394,545.415771 
	C447.812561,544.658081 446.883759,543.900391 445.703552,542.574524 
	C445.074646,542.051453 444.445740,541.528442 443.572815,540.401550 
	C441.762207,538.809875 439.951630,537.218140 437.887451,535.102722 
	C437.705017,535.036926 437.522552,534.971130 437.418091,534.743286 
	C437.418091,534.743286 437.160583,534.776611 436.811676,534.110657 
	C427.726898,525.351135 418.571686,516.663086 409.582306,507.806763 
	C403.691711,502.003387 398.041016,495.956543 392.457458,489.351776 
	C392.330048,488.224640 392.202667,487.097504 392.271667,485.194763 
	C392.202118,484.136993 392.132538,483.079254 392.300385,481.254272 
	C392.210602,477.836212 392.120850,474.418121 392.188751,469.973175 
	C392.160187,469.628052 392.131622,469.282898 392.949219,469.069946 
	C394.940277,470.765381 396.931335,472.460815 399.150909,474.781158 
	C417.418457,492.415894 435.686035,510.050629 455.063507,528.756836 
	C456.020081,527.338745 457.119690,525.708618 458.856995,523.873291 
	C460.990112,521.623169 463.123230,519.373047 465.704193,517.009583 
	C465.977631,516.814392 466.112885,516.548828 466.809021,516.120605 
	C472.443909,510.887878 478.078796,505.655151 484.247437,499.926758 
	C479.796204,496.545441 476.050568,493.700165 472.186768,490.342743 
	C471.566254,490.179016 470.945740,490.015289 470.238159,489.160553 
	C469.570618,488.076538 468.903046,486.992554 467.982269,485.273376 
	C465.490570,483.098114 462.998901,480.922852 460.293945,478.204865 
	C459.665497,477.481476 459.037048,476.758087 458.448547,475.879150 
	C458.448547,475.879150 458.317108,475.786896 458.838043,475.326538 
	C459.950195,473.912018 461.062378,472.497528 462.801025,470.782440 
	C464.520844,469.104370 466.240662,467.426300 468.155121,465.558289 
	C472.400696,469.361359 476.138000,472.709076 480.227417,476.628357 
	C484.722321,480.970734 489.217224,485.313141 493.743561,489.611053 
	C493.743561,489.611053 493.758362,489.661469 494.162476,489.870789 
M508.207306,381.557800 
	C507.137665,382.347870 506.067993,383.137909 504.711945,383.333801 
	C464.028442,344.217896 423.350342,305.096344 382.628479,266.020416 
	C381.665833,265.096680 380.212860,264.683899 378.634644,263.791138 
	C378.087128,263.854309 377.539612,263.917511 376.070526,263.802216 
	C366.718201,263.855896 357.365845,263.909576 347.299866,263.759888 
	C344.989929,263.759888 342.679993,263.759888 339.522583,263.759888 
	C341.136261,265.304474 342.054596,266.183502 343.173584,267.701569 
	C397.372864,318.248962 451.572144,368.796387 506.272919,419.811493 
	C509.843262,416.046722 513.592407,412.093414 517.946289,407.921875 
	C519.404297,406.128998 520.862244,404.336090 522.420410,402.417786 
	C522.420410,402.417786 522.544983,402.316498 523.039062,402.762421 
	C523.800598,402.079315 524.562073,401.396210 525.915161,400.352020 
	C527.188965,399.027557 528.462769,397.703125 530.263000,396.068298 
	C575.783630,352.299072 621.304199,308.529846 667.743958,263.876801 
	C655.691040,263.876801 645.090515,263.693420 634.505005,264.011108 
	C631.991699,264.086548 628.928650,265.209900 627.133362,266.917999 
	C602.652710,290.209961 578.296509,313.633759 554.032471,337.151794 
	C544.867432,346.035034 536.098206,355.325470 526.993774,364.272797 
	C521.226990,369.940094 515.174500,375.316742 509.004669,380.833740 
	C509.004669,380.833740 508.818787,381.252991 508.207306,381.557800 
M334.822235,756.315552 
	C335.222076,755.543640 335.621918,754.771729 336.260773,753.089050 
	C336.390533,618.329102 336.535553,483.569122 336.524048,348.809174 
	C336.523865,346.472595 335.215363,343.543945 333.532349,341.899963 
	C325.318390,333.876404 316.776459,326.188080 308.327972,318.405701 
	C307.465729,317.611420 306.452850,316.980652 305.632385,316.365784 
	C305.632385,463.253235 305.632385,609.766907 305.632385,756.120544 
	C315.493744,756.120544 324.768707,756.120544 334.822235,756.315552 
M703.081055,348.499969 
	C703.081055,337.109711 703.081055,325.719421 703.081055,313.142029 
	C693.570129,322.257599 685.053711,330.599365 676.315979,338.702515 
	C673.023560,341.755798 671.832214,345.030518 671.836426,349.578583 
	C671.960449,483.350403 671.931763,617.122375 671.927429,750.894348 
	C671.927368,752.682007 671.927368,754.469727 671.927368,756.431152 
	C682.485901,756.431152 692.561096,756.431152 703.082764,756.431152 
	C703.082764,620.616882 703.082764,485.058441 703.081055,348.499969 
M564.145569,477.646271 
	C593.526489,448.880707 622.925232,420.133301 652.238708,391.299072 
	C653.797485,389.765747 655.565674,387.539185 655.649170,385.568085 
	C656.019226,376.831207 655.809387,368.069763 655.809387,357.800171 
	C592.019714,419.187927 529.176453,479.664917 466.904663,539.591980 
	C472.602112,545.829468 477.851257,551.576172 482.933319,557.139893 
	C510.139343,530.498840 536.881714,504.311798 564.145569,477.646271 
z"/>
<path fill="#E7E7E7" opacity="1.000000" stroke="none" 
	d="
M458.317078,475.786896 
	C458.317108,475.786896 458.448547,475.879150 458.009399,475.949768 
	C449.104248,476.956451 443.941589,488.409729 449.071930,495.299866 
	C450.092255,496.670166 452.266235,497.444580 454.059174,497.900818 
	C455.773926,498.337189 457.687653,497.942352 459.509460,498.019135 
	C461.993561,498.123749 468.191467,505.869904 467.727722,508.246704 
	C467.208862,510.906067 466.650909,513.557800 466.109985,516.212891 
	C466.112885,516.548828 465.977631,516.814392 465.170837,516.860229 
	C462.358124,514.395264 460.474792,514.190308 459.018250,517.589233 
	C458.610870,518.539734 457.695984,519.264404 457.064148,520.129333 
	C456.441772,520.981323 455.883118,521.879944 455.296478,522.758057 
	C456.270752,523.198242 457.245026,523.638367 458.219299,524.078491 
	C457.119690,525.708618 456.020081,527.338745 455.063507,528.756836 
	C435.686035,510.050629 417.418457,492.415894 399.242157,474.178284 
	C400.863220,472.076752 402.237671,470.291443 399.345367,469.117157 
	C396.715027,468.049194 393.797211,467.689270 390.782837,466.804321 
	C389.055542,468.236542 387.551544,469.881622 386.401611,471.139435 
	C385.646423,474.536194 385.131409,477.862488 384.123993,481.032288 
	C383.440643,483.182617 381.045593,485.195862 381.201691,487.125977 
	C381.590790,491.936157 383.393555,496.621063 383.916443,501.433685 
	C384.962341,511.060425 386.210968,512.825134 395.684601,513.897888 
	C398.881195,514.259888 399.774170,515.482239 400.104218,518.517639 
	C400.974396,526.519409 404.132812,530.166809 412.032776,531.835388 
	C414.955139,532.452576 416.092743,533.685486 416.236572,536.300232 
	C416.633423,543.516418 421.409027,545.686646 427.571625,545.927429 
	C430.735229,546.051025 431.754395,547.291260 432.102844,550.412292 
	C433.108154,559.416748 434.830475,561.488647 443.182373,561.786377 
	C448.150696,561.963501 449.254974,563.593018 449.115723,568.201599 
	C448.901489,575.290222 452.010803,577.572754 459.147369,576.858582 
	C460.789307,576.694336 462.561829,577.321411 464.205109,577.814636 
	C466.224762,578.420837 468.194366,579.215271 470.140839,580.034607 
	C471.109100,580.442078 472.591095,580.920715 472.788971,581.651794 
	C473.867767,585.638245 476.648346,584.773193 479.137787,583.918884 
	C482.211639,582.864197 485.697021,581.959839 485.857147,577.656433 
	C498.375488,565.301758 510.871765,552.924561 523.417908,540.598206 
	C537.990417,526.280945 552.606689,512.008240 567.560181,497.959778 
	C568.137939,501.461517 569.910461,500.994354 572.040588,499.996124 
	C575.024414,498.597748 578.219543,497.574707 581.024109,495.891113 
	C583.760010,494.248840 586.086487,491.935822 588.649719,489.992432 
	C592.645386,486.962982 596.323608,483.054230 600.829956,481.306946 
	C604.347046,479.943176 605.389160,478.861420 604.696472,475.466248 
	C603.927979,471.699646 606.057983,469.616119 609.288208,468.396362 
	C609.922668,468.156769 625.852356,480.449738 625.825195,481.150024 
	C625.617920,486.503296 627.710693,491.973450 624.544983,497.201752 
	C623.309692,499.241852 622.343567,501.870911 622.415833,504.195618 
	C622.619141,510.735504 623.509338,517.250854 623.960693,523.787476 
	C624.201660,527.276978 622.322266,528.841187 618.817993,529.031860 
	C609.186462,529.556030 609.190369,529.627686 609.989807,538.940369 
	C610.539612,545.346130 613.848267,547.481750 619.594604,544.886230 
	C623.369446,543.181213 624.258606,544.509521 625.141846,548.248047 
	C626.941528,555.865662 629.647522,563.265686 631.803223,570.805908 
	C632.208557,572.223755 632.153992,573.997559 631.688049,575.399902 
	C629.947571,580.638306 626.870728,585.670349 626.276001,591.000854 
	C625.137451,601.205139 625.116455,611.559998 625.083130,621.853882 
	C625.055176,630.479492 625.869812,639.105164 625.956177,647.734375 
	C626.111328,663.230042 626.003784,678.728333 625.996704,694.225525 
	C625.995300,697.224304 625.989624,700.223877 625.920654,703.221619 
	C625.635010,715.635132 625.199280,728.047974 625.185425,740.461426 
	C625.183716,741.964417 627.327148,744.670288 628.617493,744.758667 
	C633.264587,745.076904 637.970276,744.436340 642.657837,744.324951 
	C644.231506,744.287476 646.511108,744.172668 647.269897,745.087219 
	C649.762146,748.090881 652.607666,747.818420 655.753296,747.003601 
	C655.753296,749.987000 655.753296,752.970398 655.753296,756.486450 
	C642.789307,756.486450 629.917786,756.486450 616.618042,756.486450 
	C616.618042,688.686157 616.618042,620.618835 616.618042,551.442810 
	C614.863586,552.538208 613.788818,553.209229 612.212769,553.771973 
	C610.848572,553.414734 609.985657,553.165771 608.557800,552.753784 
	C609.838074,551.570740 610.704834,550.769836 611.696777,549.853271 
	C610.398438,548.732910 609.349304,547.043518 608.165283,546.942932 
	C603.299805,546.529968 598.217468,545.868774 593.617493,546.974121 
	C592.367004,547.274536 591.869263,553.513977 592.258667,556.885437 
	C592.536865,559.294983 594.872681,561.466919 596.290405,563.744873 
	C597.779846,562.621643 599.269348,561.498474 601.074280,560.137451 
	C601.707642,561.103821 602.397888,562.156921 603.088074,563.210083 
	C595.941650,569.966736 588.765442,576.692383 581.673828,583.506042 
	C580.240417,584.883240 579.126892,586.593445 577.351685,587.868164 
	C577.172729,584.559387 577.507812,581.532471 577.870239,578.258850 
	C574.351929,575.106079 568.417358,573.816040 564.065247,575.536255 
	C559.014038,577.532898 558.730347,581.835144 559.013916,586.323975 
	C559.230286,589.749451 557.727173,591.248291 554.312500,591.017029 
	C552.658813,590.905090 550.983032,591.105591 549.331238,590.980530 
	C544.534546,590.617188 542.849792,592.907471 542.946289,597.536743 
	C543.157776,607.682434 543.785095,607.042664 533.630798,607.000183 
	C533.464661,606.999451 533.297668,607.011719 533.132507,606.999084 
	C528.622498,606.653625 527.400879,608.903992 526.830383,613.212341 
	C525.909302,620.168640 529.521912,625.778748 530.671997,632.149780 
	C527.731873,632.913818 525.124573,633.531433 522.948120,634.046936 
	C521.481140,636.792908 519.943726,639.389893 518.727112,642.129333 
	C518.388733,642.891174 519.000549,644.074951 519.176514,645.065186 
	C517.725952,646.655945 516.275330,648.246704 514.163940,649.910889 
	C509.828003,650.964111 506.152771,651.943787 502.088013,653.027344 
	C498.991486,649.779907 498.991486,649.779907 495.822083,651.392639 
	C494.923309,650.832520 494.024567,650.272339 493.186829,649.092224 
	C494.120544,647.124146 494.993225,645.776001 495.725098,644.645447 
	C494.239380,643.460510 492.725830,642.253418 490.863037,640.767822 
	C489.806946,641.988037 488.881287,643.057617 487.955597,644.127197 
	C487.664795,643.958374 487.373993,643.789551 487.061829,643.038757 
	C487.393097,640.009216 487.745667,637.561707 487.945953,636.171326 
	C490.960114,633.526062 493.460602,631.232178 496.068359,629.067505 
	C499.517303,626.204468 503.119049,623.522705 506.518219,620.603577 
	C508.239899,619.125061 509.660950,617.296509 511.217926,615.626160 
	C512.483459,614.913025 512.505859,613.069153 513.439026,612.159729 
	C521.002197,604.788635 528.824280,597.682922 536.376709,590.301025 
	C539.608276,587.142456 541.909912,582.870605 545.476746,580.252686 
	C551.623291,575.741333 557.568604,571.335449 561.604736,564.614136 
	C562.993652,562.301147 565.813721,560.847595 568.368652,558.999756 
	C573.318420,558.855591 575.127991,556.266907 575.249634,551.785034 
	C575.988403,550.737000 576.487549,549.868469 577.338135,548.958130 
	C579.125488,547.611755 580.561523,546.307129 581.998779,545.001221 
	C582.000000,545.000000 582.002441,544.997559 582.356567,544.950317 
	C590.862122,542.708618 592.442505,535.027527 596.319153,528.850464 
	C600.690613,525.174011 604.820435,521.728882 608.753235,518.071899 
	C610.968384,516.012146 612.858765,513.603210 615.154968,511.064728 
	C613.858154,509.876160 619.395874,505.574677 613.446716,504.765503 
	C616.304871,501.402893 616.996094,497.760742 616.211304,493.290710 
	C615.483276,489.143707 616.056030,484.768372 616.056030,479.546570 
	C566.511414,528.220032 517.315491,576.550903 467.328156,625.659241 
	C461.408875,619.477356 455.624451,613.092712 449.475311,607.081177 
	C433.399384,591.365112 417.175903,575.799805 400.980804,560.205933 
	C398.219543,557.547180 395.307739,555.044800 391.924255,552.699097 
	C390.255737,552.617920 389.128479,552.307739 387.993713,551.673706 
	C387.634216,550.740662 387.282196,550.131470 386.930145,549.522339 
	C386.620087,550.014893 386.310028,550.507446 385.609253,551.011475 
	C383.606720,553.298889 381.994965,555.574890 380.775482,557.296936 
	C378.350555,558.264343 376.175293,559.132202 373.600006,560.000000 
	C372.133331,560.000000 371.066681,560.000000 369.749573,559.711182 
	C367.285675,558.947083 365.060913,558.517700 362.863159,557.978149 
	C361.658600,557.682373 359.457916,557.127014 359.480072,556.814209 
	C359.721558,553.402283 359.204559,549.107422 361.067230,546.831116 
	C363.963837,543.291382 364.061249,538.678772 362.202637,537.023132 
	C358.627716,533.838623 359.273529,530.470276 358.948669,526.825562 
	C358.589813,522.799988 357.164581,519.633606 352.107544,520.695251 
	C352.050262,515.218933 351.992981,509.742615 352.416321,503.909912 
	C354.102814,501.792267 355.308655,500.031006 356.995850,497.566742 
	C357.690887,500.372498 358.234985,502.569031 358.805664,504.872711 
	C362.236206,502.953278 362.870422,499.307098 361.112366,496.156036 
	C360.060028,494.269806 359.103882,492.011688 359.089355,489.913910 
	C358.942749,468.773041 359.012756,447.630707 358.977173,426.488892 
	C358.974121,424.681732 359.217712,422.541229 358.383545,421.121521 
	C352.238098,410.662140 355.949554,399.278900 355.213257,388.341858 
	C355.148712,387.382874 358.771301,385.262665 358.840210,385.339172 
	C361.690948,388.505859 365.737610,391.506500 366.690247,395.272614 
	C368.416565,402.097412 368.755341,403.790955 375.707611,403.859222 
	C380.368988,403.904968 382.131256,405.133057 382.145752,410.071442 
	C382.168091,417.664490 384.488007,419.878601 392.158020,419.870209 
	C396.617859,419.865356 398.206421,420.947937 398.142181,425.686920 
	C398.036560,433.479797 400.430481,435.790924 408.272064,435.887939 
	C412.563263,435.941010 414.103241,437.229675 414.112549,441.637177 
	C414.127747,448.819397 415.421814,450.919250 421.287018,451.410889 
	C427.656586,451.944824 434.149384,451.195892 440.568298,450.729034 
	C441.419647,450.667145 442.673645,449.059021 442.846985,448.018097 
	C443.498169,444.108185 443.113312,440.546204 438.159729,439.654236 
	C438.539551,437.049103 438.757294,434.794800 438.975006,432.540527 
	C438.975006,432.540527 439.157043,432.160187 439.760925,432.337830 
	C446.403015,433.358734 446.857117,432.860291 447.053772,425.173737 
	C447.092377,424.971527 447.131012,424.769287 447.353333,424.018280 
	C446.528015,422.706024 445.518921,421.942535 444.509827,421.179047 
	C437.820740,415.146393 431.095917,409.152679 424.453369,403.069244 
	C418.709320,397.808594 413.073334,392.430206 407.360901,387.134796 
	C404.327698,384.323029 401.233521,381.577057 398.084167,378.157227 
	C398.009186,376.386841 398.495941,374.864960 397.946106,374.199280 
	C394.617889,370.169678 391.174438,366.209686 387.421600,362.586914 
	C386.921265,362.103943 384.451111,363.661499 382.893188,364.274078 
	C379.975037,361.792084 377.056885,359.310089 374.202393,356.239807 
	C377.797028,355.031250 381.311279,354.106262 384.865601,353.910919 
	C386.837555,353.802490 390.251068,354.434509 390.642151,355.558411 
	C392.160645,359.922241 394.943756,362.146820 399.184113,363.318176 
	C401.256012,363.890442 403.214081,365.003113 405.095947,366.091980 
	C406.439697,366.869476 408.641235,368.039215 408.619354,368.991577 
	C408.496704,374.324829 411.121277,376.833221 416.029846,377.810272 
	C416.797729,377.963104 417.240875,379.362762 418.022278,379.923950 
	C419.153564,380.736328 420.463501,381.893494 421.684845,381.878723 
	C425.792847,381.829163 429.895386,381.325958 434.000000,381.327362 
	C434.620483,382.887482 435.241028,384.116608 435.991577,385.603241 
	C433.395050,388.754395 432.930389,394.142059 435.638336,395.585388 
	C438.385559,397.049713 441.194183,398.969025 444.148926,399.351044 
	C449.701508,400.069031 450.016174,403.564026 450.019562,407.787750 
	C450.026001,415.768219 450.774109,416.904755 458.763458,417.811523 
	C462.433777,418.228119 463.832733,419.191895 464.181671,423.069336 
	C464.814484,430.100647 467.390045,433.136688 474.197327,433.646912 
	C479.703674,434.059631 480.512024,436.622040 480.000000,441.463043 
	C480.127777,448.449310 478.497223,455.477295 485.316925,460.071442 
	C485.773773,460.379211 485.969574,461.234009 486.080475,461.870331 
	C486.951416,466.866333 490.485077,467.830444 494.834686,468.036591 
	C504.815979,468.509674 513.005127,464.245209 520.958740,458.438507 
	C519.353455,456.734100 517.726318,455.006531 515.855164,453.019836 
	C517.023315,452.252655 517.638306,451.700562 518.358582,451.404114 
	C520.354126,450.582855 522.340637,449.640808 524.425903,449.155090 
	C530.080322,447.838013 531.601990,444.956512 528.613525,439.972595 
	C528.067139,439.061371 525.675293,438.779694 524.244690,438.981781 
	C521.782898,439.329529 519.407043,440.286163 516.994141,440.602783 
	C518.157227,435.991791 523.729126,431.085724 526.035156,430.908722 
	C528.703125,428.128876 530.202332,425.209534 532.333008,424.635803 
	C536.479065,423.519440 537.208618,421.354309 536.167358,417.901947 
	C539.130066,416.472931 541.839783,415.165924 544.213196,414.021179 
	C543.557739,411.744537 543.149170,410.325226 542.740540,408.905945 
	C544.246643,408.856018 545.949646,409.236542 547.213989,408.658112 
	C549.258606,407.722656 551.143982,406.305939 552.859985,404.819275 
	C554.975769,402.986328 556.849121,400.873535 558.827271,398.881683 
	C559.082458,399.153870 559.337585,399.426086 559.592773,399.698303 
	C560.061035,398.130554 560.529297,396.562836 561.279907,394.958649 
	C561.704712,394.281067 561.847046,393.639954 562.170532,392.766357 
	C562.901062,392.354706 563.450500,392.175507 564.000000,391.998169 
	C564.000000,392.000000 564.003662,392.001221 564.096436,392.149475 
	C564.453796,392.200317 564.718323,392.102875 565.347778,392.002136 
	C569.662842,390.771973 570.320374,387.380554 571.179993,383.754669 
	C574.137024,382.692352 573.588989,381.361633 571.938782,379.863068 
	C573.938904,377.382629 575.716797,374.672699 577.988770,372.473053 
	C581.834656,368.749512 585.992737,365.348480 590.702515,361.915771 
	C592.588501,362.530975 593.791504,363.042206 595.126465,363.609528 
	C595.491394,361.430054 595.752075,359.873322 596.097900,357.808350 
	C597.774048,359.244415 598.745361,360.076569 600.514709,361.592438 
	C600.188599,359.745880 600.072388,358.965759 599.908752,358.195740 
	C599.745239,357.426666 599.534241,356.667725 599.514648,356.588989 
	C601.603333,356.026398 603.923584,356.086945 605.145691,354.958374 
	C611.889587,348.730804 618.351135,342.198151 624.959534,335.822052 
	C625.512573,335.288483 626.558167,335.287994 627.168701,334.788025 
	C631.495789,331.244293 637.162048,329.664490 640.437744,324.400909 
	C642.345703,321.335083 644.691772,317.483582 649.697388,317.817444 
	C650.603638,317.877899 651.818481,316.158051 652.580750,315.047272 
	C656.188049,309.791016 658.852478,303.605133 666.356079,302.047058 
	C667.288574,302.395996 667.836487,302.786041 668.446777,302.980377 
	C670.174500,303.530457 671.927856,304.000458 673.671021,304.501984 
	C673.422729,302.795807 673.111755,301.095612 672.947754,299.381348 
	C672.835815,298.211884 672.929016,297.022736 672.930542,295.842407 
	C674.740112,295.921509 676.561279,295.900360 678.355774,296.109283 
	C679.990173,296.299591 681.595520,296.739655 682.748352,296.974762 
	C680.915710,293.896881 679.457825,291.448425 678.192383,288.676819 
	C680.589844,287.902008 682.794922,287.450409 685.171509,287.302521 
	C687.287903,289.110321 689.232788,290.614410 691.516602,292.380615 
	C694.429138,289.342896 696.661377,291.876831 698.917175,294.305725 
	C688.915771,303.784332 678.914429,313.262970 668.296753,322.805725 
	C665.638733,322.800537 663.460327,322.260315 661.595581,322.801208 
	C659.906067,323.291199 658.558472,324.960083 657.060181,326.109192 
	C658.372681,327.503448 659.685242,328.897705 660.997742,330.291931 
	C660.284668,330.807831 659.571655,331.323700 658.179077,331.814453 
	C650.773560,328.604828 649.990173,329.060913 650.011597,336.163940 
	C650.015625,337.496521 650.048157,338.829010 650.067505,340.161560 
	C646.319519,343.166382 642.472168,346.058685 638.874756,349.234131 
	C637.525146,350.425415 636.982727,352.502502 635.687805,353.788544 
	C623.160461,366.230011 610.614075,378.653778 597.945068,390.950653 
	C588.145691,400.462250 578.112854,409.733002 568.277588,419.208221 
	C559.723083,427.449524 551.344788,435.873566 542.806213,444.131592 
	C534.300049,452.358276 525.715454,460.504333 517.118286,468.636139 
	C512.064453,473.416412 506.919220,478.100067 501.101379,482.932007 
	C497.049957,482.343750 493.695984,481.717560 490.386139,480.910339 
	C489.563934,480.709808 488.304749,479.996887 488.228790,479.395416 
	C487.434174,473.104401 483.592560,474.798798 479.875275,476.056824 
	C476.138000,472.709076 472.400696,469.361359 468.155121,465.558289 
	C466.240662,467.426300 464.520844,469.104370 462.248657,470.766418 
	C460.854614,468.982300 460.012909,467.214233 458.931305,464.942230 
	C458.121643,466.174744 457.606476,466.594299 457.628967,466.982697 
	C457.798981,469.920837 458.074493,472.852936 458.317078,475.786896 
M421.893036,462.007751 
	C420.400879,462.848358 418.055511,463.353119 417.568878,464.589478 
	C415.765656,469.171021 417.583679,473.412903 420.271057,477.120911 
	C422.393951,480.050110 430.064728,482.082428 433.099915,480.704163 
	C437.644135,478.640625 435.512421,474.401337 435.984650,471.023987 
	C436.075317,470.375641 436.056763,469.687714 435.951782,469.040253 
	C435.286041,464.933441 432.899811,462.495728 428.742462,462.060822 
	C426.774719,461.854950 424.769257,462.009705 421.893036,462.007751 
M566.488586,501.560059 
	C566.488586,501.560059 566.446838,501.480194 566.488586,501.560059 
z"/>
<path fill="#E5E6E5" opacity="1.000000" stroke="none" 
	d="
M434.000000,380.996338 
	C429.895386,381.325958 425.792847,381.829163 421.684845,381.878723 
	C420.463501,381.893494 419.153564,380.736328 418.022278,379.923950 
	C417.240875,379.362762 416.797729,377.963104 416.029846,377.810272 
	C411.121277,376.833221 408.496704,374.324829 408.619354,368.991577 
	C408.641235,368.039215 406.439697,366.869476 405.095947,366.091980 
	C403.214081,365.003113 401.256012,363.890442 399.184113,363.318176 
	C394.943756,362.146820 392.160645,359.922241 390.642151,355.558411 
	C390.251068,354.434509 386.837555,353.802490 384.865601,353.910919 
	C381.311279,354.106262 377.797028,355.031250 374.083374,355.930603 
	C358.112579,341.665253 342.296570,327.150848 326.545319,312.566528 
	C314.336395,301.262146 302.208435,289.870361 289.337891,277.857971 
	C289.337891,437.780304 289.337891,596.908325 289.337891,756.349854 
	C276.179352,756.349854 263.599274,756.349854 250.491669,756.349854 
	C250.491669,739.842285 250.488754,723.549072 250.492157,707.255859 
	C250.517395,586.608459 250.543365,465.961090 250.570435,345.313721 
	C250.576294,319.151459 250.582932,292.989227 250.614212,266.826996 
	C250.615356,265.871307 250.881790,264.915955 251.594238,264.077240 
	C252.445297,264.098328 252.726746,264.002655 253.008179,263.906952 
	C273.150482,263.866119 293.292847,263.793304 313.434814,263.858612 
	C314.735260,263.862823 316.312134,264.633087 317.290466,265.548981 
	C355.192474,301.030487 393.039612,336.570557 430.897125,372.709503 
	C431.933502,375.211151 432.966766,377.106171 434.000000,379.333771 
	C434.000000,380.109650 434.000000,380.553009 434.000000,380.996338 
z"/>
<path fill="#E5E6E5" opacity="1.000000" stroke="none" 
	d="
M699.190674,294.171570 
	C696.661377,291.876831 694.429138,289.342896 691.516602,292.380615 
	C689.232788,290.614410 687.287903,289.110321 685.319824,286.968506 
	C685.533508,285.546021 685.914307,284.773804 685.984131,283.974457 
	C686.489563,278.189240 687.703064,272.917236 693.135132,269.379822 
	C694.381775,268.567993 694.411011,265.886597 695.000488,264.065552 
	C714.027161,263.987488 733.053772,263.909424 752.635986,264.071167 
	C753.460449,264.214996 753.729370,264.119049 753.998291,264.023102 
	C755.148987,264.023102 756.299744,264.023102 757.757080,264.023102 
	C757.757080,428.120209 757.757080,592.122925 757.757080,756.364685 
	C744.782288,756.364685 732.010986,756.364685 718.723267,756.364685 
	C718.723267,596.762939 718.723267,437.133026 718.723267,275.885437 
	C711.590820,282.607880 705.527466,288.322632 699.190674,294.171570 
z"/>
<path fill="#E5E7E6" opacity="1.000000" stroke="none" 
	d="
M703.081909,349.000000 
	C703.082764,485.058441 703.082764,620.616882 703.082764,756.431152 
	C692.561096,756.431152 682.485901,756.431152 671.927368,756.431152 
	C671.927368,754.469727 671.927368,752.682007 671.927429,750.894348 
	C671.931763,617.122375 671.960449,483.350403 671.836426,349.578583 
	C671.832214,345.030518 673.023560,341.755798 676.315979,338.702515 
	C685.053711,330.599365 693.570129,322.257599 703.081055,313.142029 
	C703.081055,325.719421 703.081055,337.109711 703.081909,349.000000 
z"/>
<path fill="#E5E7E6" opacity="1.000000" stroke="none" 
	d="
M334.043640,756.120544 
	C324.768707,756.120544 315.493744,756.120544 305.632385,756.120544 
	C305.632385,609.766907 305.632385,463.253235 305.632385,316.365784 
	C306.452850,316.980652 307.465729,317.611420 308.327972,318.405701 
	C316.776459,326.188080 325.318390,333.876404 333.532349,341.899963 
	C335.215363,343.543945 336.523865,346.472595 336.524048,348.809174 
	C336.535553,483.569122 336.390533,618.329102 335.817322,753.601135 
	C334.930481,754.782349 334.487061,755.451416 334.043640,756.120544 
z"/>
<path fill="#E4E6E5" opacity="1.000000" stroke="none" 
	d="
M655.850586,746.674072 
	C652.607666,747.818420 649.762146,748.090881 647.269897,745.087219 
	C646.511108,744.172668 644.231506,744.287476 642.657837,744.324951 
	C637.970276,744.436340 633.264587,745.076904 628.617493,744.758667 
	C627.327148,744.670288 625.183716,741.964417 625.185425,740.461426 
	C625.199280,728.047974 625.635010,715.635132 625.920654,703.221619 
	C625.989624,700.223877 625.995300,697.224304 625.996704,694.225525 
	C626.003784,678.728333 626.111328,663.230042 625.956177,647.734375 
	C625.869812,639.105164 625.055176,630.479492 625.083130,621.853882 
	C625.116455,611.559998 625.137451,601.205139 626.276001,591.000854 
	C626.870728,585.670349 629.947571,580.638306 631.688049,575.399902 
	C632.153992,573.997559 632.208557,572.223755 631.803223,570.805908 
	C629.647522,563.265686 626.941528,555.865662 625.141846,548.248047 
	C624.258606,544.509521 623.369446,543.181213 619.594604,544.886230 
	C613.848267,547.481750 610.539612,545.346130 609.989807,538.940369 
	C609.190369,529.627686 609.186462,529.556030 618.817993,529.031860 
	C622.322266,528.841187 624.201660,527.276978 623.960693,523.787476 
	C623.509338,517.250854 622.619141,510.735504 622.415833,504.195618 
	C622.343567,501.870911 623.309692,499.241852 624.544983,497.201752 
	C627.710693,491.973450 625.617920,486.503296 625.825195,481.150024 
	C625.852356,480.449738 609.922668,468.156769 609.288208,468.396362 
	C606.057983,469.616119 603.927979,471.699646 604.696472,475.466248 
	C605.389160,478.861420 604.347046,479.943176 600.829956,481.306946 
	C596.323608,483.054230 592.645386,486.962982 588.649719,489.992432 
	C586.086487,491.935822 583.760010,494.248840 581.024109,495.891113 
	C578.219543,497.574707 575.024414,498.597748 572.040588,499.996124 
	C569.910461,500.994354 568.137939,501.461517 567.874634,497.800659 
	C568.534058,496.636230 569.235168,495.874542 570.570251,495.061066 
	C576.147949,495.925018 576.497131,495.492920 574.828735,490.524658 
	C581.629639,483.806519 588.430481,477.088379 595.458130,470.683044 
	C595.966614,472.248596 596.248352,473.501404 596.530151,474.754211 
	C597.437439,474.501709 598.631958,474.531830 599.204529,473.949982 
	C602.444214,470.657562 605.535034,467.218567 608.591614,463.921051 
	C607.900940,462.369141 607.302612,461.024750 606.704285,459.680389 
	C606.704285,459.680389 606.894104,459.910706 607.153931,459.820679 
	C607.884460,458.995422 608.355164,458.260193 608.825867,457.524963 
	C608.794739,457.227264 608.909424,457.004761 609.679932,457.021729 
	C612.414978,460.618866 614.622864,460.686768 616.959412,457.248627 
	C617.493591,456.462555 618.376343,455.904968 619.126709,455.275604 
	C622.287659,452.624603 624.073975,449.854889 619.953735,446.520813 
	C619.953735,446.520813 620.121277,446.127747 620.660217,446.318970 
	C625.572754,449.523376 627.708191,446.276001 629.902161,443.349854 
	C630.846130,442.090820 631.360107,439.910675 632.527405,439.521057 
	C637.652771,437.810272 638.379578,434.441315 636.964294,429.905914 
	C639.901733,426.947906 642.839233,423.989929 646.465332,420.959961 
	C648.674438,420.591827 650.194946,420.295685 651.715454,419.999512 
	C651.986450,420.429626 652.257446,420.859711 652.528442,421.289825 
	C651.010010,422.450745 649.491516,423.611633 647.541016,425.102875 
	C647.541016,425.645142 647.541016,427.052277 647.541016,427.951477 
	C645.462463,429.272980 643.783447,430.340454 641.620911,431.715332 
	C645.238953,434.261780 646.077087,436.372833 642.335022,438.549530 
	C641.643433,438.951752 641.604675,440.344086 640.999084,441.052551 
	C639.541870,442.757416 638.114136,444.586578 636.323853,445.880157 
	C634.497253,447.199951 632.074280,447.694641 630.248840,449.015503 
	C628.897217,449.993500 628.122437,451.746948 627.022522,453.099579 
	C625.469666,455.009308 623.853882,456.867859 622.265015,458.748230 
	C625.000366,460.831116 627.564392,464.389496 630.502014,464.730652 
	C640.880005,465.935730 640.925903,465.518005 641.003845,455.148285 
	C641.012573,453.983917 640.808228,452.724243 641.185608,451.683929 
	C641.531982,450.729095 642.371155,449.601288 643.266968,449.252228 
	C651.735657,445.952637 653.997437,447.550568 653.997498,456.636597 
	C653.997498,456.969788 653.989990,457.303131 653.998718,457.636108 
	C654.093872,461.273193 654.234558,464.338287 649.990723,466.701233 
	C645.078918,469.436005 646.291931,478.313080 651.068909,481.551514 
	C652.488831,482.514130 653.894409,484.797302 653.840942,486.427185 
	C653.432617,498.852203 652.477539,511.258972 652.049561,523.683655 
	C651.520081,539.053894 650.924561,554.440796 651.106140,569.811646 
	C651.321716,588.064514 653.155579,606.325439 652.767090,624.550476 
	C652.384155,642.519897 650.052002,660.445435 651.952148,678.462646 
	C652.086243,679.734070 651.418518,681.071106 651.408386,682.379883 
	C651.351013,689.769592 651.380676,697.160034 651.380676,704.950073 
	C653.198242,704.550537 654.450806,704.275208 655.703369,703.999878 
	C655.773743,707.035522 655.844177,710.071228 655.458191,713.577637 
	C653.579102,716.613159 651.831787,719.060791 650.847229,721.784058 
	C650.187134,723.609741 649.755005,726.969727 650.693909,727.671082 
	C654.837280,730.766052 653.737549,734.911743 654.071350,738.904907 
	C654.243774,740.968506 655.169067,742.969177 655.754211,744.998291 
	C655.818726,745.447083 655.883301,745.895813 655.850586,746.674072 
M616.829834,466.553192 
	C617.820129,465.744415 618.810364,464.935638 619.800659,464.126862 
	C619.402283,463.767700 619.003906,463.408539 618.605591,463.049377 
	C617.877258,464.076538 617.148926,465.103668 616.829834,466.553192 
z"/>
<path fill="#E3E4E4" opacity="1.000000" stroke="none" 
	d="
M563.884888,477.885498 
	C536.881714,504.311798 510.139343,530.498840 482.933319,557.139893 
	C477.851257,551.576172 472.602112,545.829468 466.904663,539.591980 
	C529.176453,479.664917 592.019714,419.187927 655.809387,357.800171 
	C655.809387,368.069763 656.019226,376.831207 655.649170,385.568085 
	C655.565674,387.539185 653.797485,389.765747 652.238708,391.299072 
	C622.925232,420.133301 593.526489,448.880707 563.884888,477.885498 
z"/>
<path fill="#E4E4E3" opacity="1.000000" stroke="none" 
	d="
M517.341553,408.140137 
	C513.592407,412.093414 509.843262,416.046722 506.272919,419.811493 
	C451.572144,368.796387 397.372864,318.248962 343.241364,267.076050 
	C344.877258,265.621429 346.445374,264.792328 348.013519,263.963257 
	C357.365845,263.909576 366.718201,263.855896 376.681702,264.102264 
	C377.858124,264.279144 378.423340,264.155975 378.988586,264.032806 
	C380.212860,264.683899 381.665833,265.096680 382.628479,266.020416 
	C423.350342,305.096344 464.028442,344.217896 504.941101,383.998962 
	C520.144958,389.992065 511.998199,400.644562 510.656403,409.570282 
	C513.044922,409.059326 515.193237,408.599762 517.341553,408.140137 
z"/>
<path fill="#E5E7E6" opacity="1.000000" stroke="none" 
	d="
M517.643921,408.031006 
	C515.193237,408.599762 513.044922,409.059326 510.656403,409.570282 
	C511.998199,400.644562 520.144958,389.992065 505.084290,384.296082 
	C506.067993,383.137909 507.137665,382.347870 508.611420,381.726227 
	C509.551636,382.204529 510.087738,382.514404 510.623840,382.824280 
	C510.165924,382.157410 509.708008,381.490540 509.250092,380.823700 
	C515.174500,375.316742 521.226990,369.940094 526.993774,364.272797 
	C536.098206,355.325470 544.867432,346.035034 554.032471,337.151794 
	C578.296509,313.633759 602.652710,290.209961 627.133362,266.917999 
	C628.928650,265.209900 631.991699,264.086548 634.505005,264.011108 
	C645.090515,263.693420 655.691040,263.876801 667.743958,263.876801 
	C621.304199,308.529846 575.783630,352.299072 529.571167,396.145813 
	C526.025757,396.398621 524.587769,397.695038 525.323608,400.713104 
	C524.562073,401.396210 523.800598,402.079315 522.661438,402.385193 
	C522.110474,402.013123 521.937134,402.018250 521.763794,402.023376 
	C521.949280,402.196655 522.134766,402.369934 522.320251,402.543213 
	C520.862244,404.336090 519.404297,406.128998 517.643921,408.031006 
M518.034973,377.307312 
	C517.429626,377.655304 516.824280,378.003296 516.218933,378.351288 
	C516.600830,378.754333 516.982727,379.157379 517.364624,379.560455 
	C517.739624,378.947205 518.114624,378.333984 518.034973,377.307312 
z"/>
<path fill="#E7E7E7" opacity="1.000000" stroke="none" 
	d="
M352.111053,674.702759 
	C352.050507,658.443237 351.989929,642.183655 352.403259,625.440430 
	C353.587708,623.866577 354.611847,622.865356 354.950714,621.669922 
	C356.013153,617.921326 356.817444,614.099670 357.721741,610.306274 
	C358.158356,610.167969 358.595001,610.029663 359.031647,609.891357 
	C359.685059,611.232788 360.668060,612.517395 360.911743,613.929565 
	C361.246735,615.870972 360.728668,617.965210 361.098816,619.893616 
	C361.849487,623.804688 362.424683,628.101196 368.000000,628.468628 
	C368.330811,641.716125 368.877319,654.494202 368.921021,667.273987 
	C368.953339,676.722412 367.850616,686.189148 368.167664,695.617004 
	C368.381439,701.974365 370.354248,708.256409 371.185425,714.618530 
	C371.457764,716.703186 371.352264,719.564636 370.142670,720.978699 
	C366.536987,725.193970 367.981964,729.934326 368.252014,734.357178 
	C368.524414,738.818848 368.951813,743.887451 375.019531,745.130310 
	C375.806244,745.291443 376.894958,746.420166 376.974884,747.190796 
	C377.467834,751.945007 380.988007,751.657532 384.397125,752.459900 
	C388.315613,753.382202 390.030212,752.045410 389.914154,748.519165 
	C389.505676,736.106140 388.824402,723.702332 388.286346,711.293335 
	C388.208221,709.492249 388.167450,707.655701 388.426727,705.881958 
	C388.797943,703.342163 389.925842,700.846069 389.931061,698.329651 
	C390.025726,652.886597 390.000000,607.443237 390.175232,561.769592 
	C390.888428,561.359619 391.426422,561.179993 391.964417,561.000427 
	C391.979584,565.276245 391.995850,569.552002 392.009766,573.827820 
	C392.193390,630.267151 392.377533,686.706421 392.558319,743.145752 
	C392.571594,747.288391 392.560028,751.431152 392.560028,756.291626 
	C378.853027,756.291626 365.553772,756.291626 351.849823,756.291626 
	C351.849823,753.791809 351.849823,750.997437 352.337769,747.900208 
	C354.316162,745.518738 355.806549,743.440125 357.385773,741.237671 
	C357.695679,741.294739 358.166901,741.391785 358.641602,741.467041 
	C360.119629,741.701477 361.598999,741.927673 363.077881,742.157043 
	C363.192719,741.089172 363.782959,739.444580 363.327179,739.068848 
	C362.252106,738.182617 360.619629,738.014587 359.324097,737.341492 
	C358.095184,736.702942 356.406158,736.024353 355.989929,734.949097 
	C355.238831,733.008484 355.046753,730.759766 355.037994,728.638000 
	C354.969299,712.011169 355.037781,695.383606 354.942688,678.757019 
	C354.932800,677.025574 356.211090,673.818787 352.111053,674.702759 
M390.511719,753.441528 
	C390.511719,753.441528 390.552277,753.519409 390.511719,753.441528 
z"/>
<path fill="#E4E4E3" opacity="1.000000" stroke="none" 
	d="
M485.553162,577.797424 
	C485.697021,581.959839 482.211639,582.864197 479.137787,583.918884 
	C476.648346,584.773193 473.867767,585.638245 472.788971,581.651794 
	C472.591095,580.920715 471.109100,580.442078 470.140839,580.034607 
	C468.194366,579.215271 466.224762,578.420837 464.205109,577.814636 
	C462.561829,577.321411 460.789307,576.694336 459.147369,576.858582 
	C452.010803,577.572754 448.901489,575.290222 449.115723,568.201599 
	C449.254974,563.593018 448.150696,561.963501 443.182373,561.786377 
	C434.830475,561.488647 433.108154,559.416748 432.102844,550.412292 
	C431.754395,547.291260 430.735229,546.051025 427.571625,545.927429 
	C421.409027,545.686646 416.633423,543.516418 416.236572,536.300232 
	C416.092743,533.685486 414.955139,532.452576 412.032776,531.835388 
	C404.132812,530.166809 400.974396,526.519409 400.104218,518.517639 
	C399.774170,515.482239 398.881195,514.259888 395.684601,513.897888 
	C386.210968,512.825134 384.962341,511.060425 383.916443,501.433685 
	C383.393555,496.621063 381.590790,491.936157 381.201691,487.125977 
	C381.045593,485.195862 383.440643,483.182617 384.123993,481.032288 
	C385.131409,477.862488 385.646423,474.536194 386.401611,471.139435 
	C387.551544,469.881622 389.055542,468.236542 390.782501,467.132935 
	C391.004608,468.113129 391.003754,468.551788 391.001709,469.327454 
	C391.001770,470.113495 391.003082,470.562622 391.005432,471.464417 
	C391.358612,475.285217 391.710785,478.653351 392.062958,482.021484 
	C392.132538,483.079254 392.202118,484.136993 391.930420,485.780548 
	C391.820374,487.583801 392.051636,488.801270 392.282867,490.018738 
	C398.041016,495.956543 403.691711,502.003387 409.582306,507.806763 
	C418.571686,516.663086 427.726898,525.351135 437.012817,534.469238 
	C437.213989,534.827820 437.340057,534.905273 437.340057,534.905273 
	C437.522552,534.971130 437.705017,535.036926 437.981262,535.773926 
	C437.714142,540.829468 440.743622,540.944946 443.816833,541.005371 
	C444.445740,541.528442 445.074646,542.051453 445.848999,543.209839 
	C446.965607,544.563782 447.936768,545.282349 448.907959,546.000916 
	C450.203644,547.117920 451.499329,548.234924 452.784027,549.946472 
	C452.726166,551.128967 452.679291,551.716858 452.632385,552.304810 
	C453.190521,551.944885 453.748657,551.585022 454.306793,551.225159 
	C457.217560,553.881958 460.128296,556.538757 462.893555,559.727905 
	C462.637085,561.020325 462.149414,562.169373 462.472046,562.481934 
	C466.870880,566.743042 471.331116,570.946106 475.928711,574.989990 
	C476.508026,575.499573 477.955170,575.022461 479.000214,575.002502 
	C481.083191,575.981140 483.166168,576.959778 485.553162,577.797424 
z"/>
<path fill="#E5E6E5" opacity="1.000000" stroke="none" 
	d="
M437.997589,440.005127 
	C443.113312,440.546204 443.498169,444.108185 442.846985,448.018097 
	C442.673645,449.059021 441.419647,450.667145 440.568298,450.729034 
	C434.149384,451.195892 427.656586,451.944824 421.287018,451.410889 
	C415.421814,450.919250 414.127747,448.819397 414.112549,441.637177 
	C414.103241,437.229675 412.563263,435.941010 408.272064,435.887939 
	C400.430481,435.790924 398.036560,433.479797 398.142181,425.686920 
	C398.206421,420.947937 396.617859,419.865356 392.158020,419.870209 
	C384.488007,419.878601 382.168091,417.664490 382.145752,410.071442 
	C382.131256,405.133057 380.368988,403.904968 375.707611,403.859222 
	C368.755341,403.790955 368.416565,402.097412 366.690247,395.272614 
	C365.737610,391.506500 361.690948,388.505859 358.840210,385.339172 
	C358.771301,385.262665 355.148712,387.382874 355.213257,388.341858 
	C355.949554,399.278900 352.238098,410.662140 358.383545,421.121521 
	C359.217712,422.541229 358.974121,424.681732 358.977173,426.488892 
	C359.012756,447.630707 358.942749,468.773041 359.089355,489.913910 
	C359.103882,492.011688 360.060028,494.269806 361.112366,496.156036 
	C362.870422,499.307098 362.236206,502.953278 358.805664,504.872711 
	C358.234985,502.569031 357.690887,500.372498 356.995850,497.566742 
	C355.308655,500.031006 354.102814,501.792267 352.497742,503.398315 
	C352.038849,471.789062 351.977570,440.335052 351.920349,408.881012 
	C351.899750,397.561981 351.888885,386.242981 352.337372,374.462402 
	C353.995941,374.409241 356.196075,374.741425 356.233673,375.237579 
	C356.744507,381.974243 362.490326,380.583649 366.389709,381.973969 
	C367.407562,382.336914 368.536499,382.388397 369.614410,382.582886 
	C369.208984,382.969147 368.803558,383.355377 368.398132,383.741608 
	C369.852112,386.064606 370.786926,389.430542 372.878906,390.471863 
	C376.212067,392.131042 380.315735,392.242371 384.593414,393.109619 
	C384.666229,393.591797 385.007629,394.697418 384.968414,395.789398 
	C384.782562,400.962524 384.843750,405.866547 391.093994,407.891388 
	C391.995239,408.183289 392.385223,410.022827 393.034485,411.132904 
	C393.515289,411.954895 393.856812,413.218658 394.563782,413.487335 
	C398.125854,414.841034 401.791962,415.919403 405.407837,417.135223 
	C405.810852,417.270721 406.126862,417.665039 406.418213,417.889282 
	C405.605743,419.173248 404.881836,420.317291 404.223236,421.358154 
	C406.143402,422.887695 408.067749,423.806519 409.065338,425.331604 
	C411.933777,429.716705 419.349274,430.331329 419.014618,437.360687 
	C418.996094,437.749390 419.913879,438.314636 420.495239,438.579529 
	C426.150635,441.156494 432.043274,440.996124 437.997589,440.005127 
M380.667603,397.576508 
	C380.990601,397.002899 381.313599,396.429260 381.636566,395.855621 
	C381.073395,395.681213 380.510254,395.506805 379.947083,395.332397 
	C379.998047,395.999298 380.048981,396.666229 380.667603,397.576508 
z"/>
<path fill="#E7E7E7" opacity="1.000000" stroke="none" 
	d="
M655.801453,703.540344 
	C654.450806,704.275208 653.198242,704.550537 651.380676,704.950073 
	C651.380676,697.160034 651.351013,689.769592 651.408386,682.379883 
	C651.418518,681.071106 652.086243,679.734070 651.952148,678.462646 
	C650.052002,660.445435 652.384155,642.519897 652.767090,624.550476 
	C653.155579,606.325439 651.321716,588.064514 651.106140,569.811646 
	C650.924561,554.440796 651.520081,539.053894 652.049561,523.683655 
	C652.477539,511.258972 653.432617,498.852203 653.840942,486.427185 
	C653.894409,484.797302 652.488831,482.514130 651.068909,481.551514 
	C646.291931,478.313080 645.078918,469.436005 649.990723,466.701233 
	C654.234558,464.338287 654.093872,461.273193 653.998718,457.636108 
	C653.989990,457.303131 653.997498,456.969788 653.997498,456.636597 
	C653.997437,447.550568 651.735657,445.952637 643.266968,449.252228 
	C642.371155,449.601288 641.531982,450.729095 641.185608,451.683929 
	C640.808228,452.724243 641.012573,453.983917 641.003845,455.148285 
	C640.925903,465.518005 640.880005,465.935730 630.502014,464.730652 
	C627.564392,464.389496 625.000366,460.831116 622.265015,458.748230 
	C623.853882,456.867859 625.469666,455.009308 627.022522,453.099579 
	C628.122437,451.746948 628.897217,449.993500 630.248840,449.015503 
	C632.074280,447.694641 634.497253,447.199951 636.323853,445.880157 
	C638.114136,444.586578 639.541870,442.757416 640.999084,441.052551 
	C641.604675,440.344086 641.643433,438.951752 642.335022,438.549530 
	C646.077087,436.372833 645.238953,434.261780 641.620911,431.715332 
	C643.783447,430.340454 645.462463,429.272980 647.541016,427.951477 
	C647.541016,427.052277 647.541016,425.645142 647.541016,425.102875 
	C649.491516,423.611633 651.010010,422.450745 652.528442,421.289825 
	C652.257446,420.859711 651.986450,420.429626 651.715454,419.999512 
	C650.194946,420.295685 648.674438,420.591827 646.760620,420.850952 
	C648.766174,418.363464 651.165039,415.912994 654.101685,413.259277 
	C655.017334,413.056946 655.395264,413.057892 655.773254,413.058807 
	C655.811462,435.517090 655.877625,457.975372 655.882874,480.433655 
	C655.900269,554.649353 655.895691,628.865112 655.801453,703.540344 
z"/>
<path fill="#E5E6E5" opacity="1.000000" stroke="none" 
	d="
M368.000000,628.000000 
	C362.424683,628.101196 361.849487,623.804688 361.098816,619.893616 
	C360.728668,617.965210 361.246735,615.870972 360.911743,613.929565 
	C360.668060,612.517395 359.685059,611.232788 359.031647,609.891357 
	C358.595001,610.029663 358.158356,610.167969 357.721741,610.306274 
	C356.817444,614.099670 356.013153,617.921326 354.950714,621.669922 
	C354.611847,622.865356 353.587708,623.866577 352.490021,624.978882 
	C352.042572,596.974426 351.982269,568.947815 352.286835,540.410828 
	C352.940979,539.585815 353.230255,539.271179 353.519531,538.956543 
	C353.045990,538.638123 352.572449,538.319702 352.098938,538.001282 
	C352.045166,532.479187 351.991394,526.957031 352.022614,521.065063 
	C357.164581,519.633606 358.589813,522.799988 358.948669,526.825562 
	C359.273529,530.470276 358.627716,533.838623 362.202637,537.023132 
	C364.061249,538.678772 363.963837,543.291382 361.067230,546.831116 
	C359.204559,549.107422 359.721558,553.402283 359.480072,556.814209 
	C359.457916,557.127014 361.658600,557.682373 362.863159,557.978149 
	C365.060913,558.517700 367.285675,558.947083 369.564514,560.050537 
	C369.086578,562.857788 368.084473,565.034241 368.071472,567.216614 
	C367.950562,587.477173 368.000000,607.738708 368.000000,628.000000 
z"/>
<path fill="#E4E4E3" opacity="1.000000" stroke="none" 
	d="
M434.000000,381.327362 
	C434.000000,380.553009 434.000000,380.109650 434.243958,379.126221 
	C434.685852,377.985870 434.883759,377.385620 435.081696,376.785370 
	C441.397583,382.347809 447.847900,387.765961 454.003601,393.500397 
	C471.004486,409.337738 487.882233,425.307251 504.965820,441.838104 
	C507.070068,441.856445 508.991394,441.139435 510.975586,440.718842 
	C511.925568,440.517456 512.994629,440.877777 513.756348,441.215454 
	C511.002319,443.299316 508.501770,445.151459 505.621674,446.994019 
	C503.590424,446.064301 500.794098,445.419556 500.494476,444.174103 
	C499.457428,439.863953 495.524872,439.922333 492.833374,438.164490 
	C492.624481,438.028107 492.028381,438.484619 490.513519,439.143280 
	C491.830048,439.665527 492.572876,439.960205 493.431641,440.300873 
	C488.795013,444.868195 484.394714,442.848267 480.000000,441.000000 
	C480.512024,436.622040 479.703674,434.059631 474.197327,433.646912 
	C467.390045,433.136688 464.814484,430.100647 464.181671,423.069336 
	C463.832733,419.191895 462.433777,418.228119 458.763458,417.811523 
	C450.774109,416.904755 450.026001,415.768219 450.019562,407.787750 
	C450.016174,403.564026 449.701508,400.069031 444.148926,399.351044 
	C441.194183,398.969025 438.385559,397.049713 435.638336,395.585388 
	C432.930389,394.142059 433.395050,388.754395 435.991577,385.603241 
	C435.241028,384.116608 434.620483,382.887482 434.000000,381.327362 
z"/>
<path fill="#E4E6E5" opacity="1.000000" stroke="none" 
	d="
M531.004883,632.003235 
	C529.521912,625.778748 525.909302,620.168640 526.830383,613.212341 
	C527.400879,608.903992 528.622498,606.653625 533.132507,606.999084 
	C533.297668,607.011719 533.464661,606.999451 533.630798,607.000183 
	C543.785095,607.042664 543.157776,607.682434 542.946289,597.536743 
	C542.849792,592.907471 544.534546,590.617188 549.331238,590.980530 
	C550.983032,591.105591 552.658813,590.905090 554.312500,591.017029 
	C557.727173,591.248291 559.230286,589.749451 559.013916,586.323975 
	C558.730347,581.835144 559.014038,577.532898 564.065247,575.536255 
	C568.417358,573.816040 574.351929,575.106079 577.870239,578.258850 
	C577.507812,581.532471 577.172729,584.559387 576.981323,587.921875 
	C575.854675,589.909180 574.757446,591.736755 573.286804,593.185120 
	C560.032349,606.238281 546.712402,619.224915 532.678467,632.232300 
	C531.631836,632.156799 531.318359,632.080017 531.004883,632.003235 
M549.508057,612.269287 
	C549.263794,612.012146 549.021851,611.752502 548.762756,611.511292 
	C548.756042,611.505066 548.562195,611.699829 548.455627,611.800842 
	C548.700134,612.058105 548.944702,612.315369 549.508057,612.269287 
M532.302795,629.842102 
	C532.379944,629.794434 532.457092,629.746765 532.302795,629.842102 
z"/>
<path fill="#E3E3E2" opacity="1.000000" stroke="none" 
	d="
M438.159729,439.654236 
	C432.043274,440.996124 426.150635,441.156494 420.495239,438.579529 
	C419.913879,438.314636 418.996094,437.749390 419.014618,437.360687 
	C419.349274,430.331329 411.933777,429.716705 409.065338,425.331604 
	C408.067749,423.806519 406.143402,422.887695 404.223236,421.358154 
	C404.881836,420.317291 405.605743,419.173248 406.418213,417.889282 
	C406.126862,417.665039 405.810852,417.270721 405.407837,417.135223 
	C401.791962,415.919403 398.125854,414.841034 394.563782,413.487335 
	C393.856812,413.218658 393.515289,411.954895 393.034485,411.132904 
	C392.385223,410.022827 391.995239,408.183289 391.093994,407.891388 
	C384.843750,405.866547 384.782562,400.962524 384.968414,395.789398 
	C385.007629,394.697418 384.666229,393.591797 384.593414,393.109619 
	C380.315735,392.242371 376.212067,392.131042 372.878906,390.471863 
	C370.786926,389.430542 369.852112,386.064606 368.398132,383.741608 
	C368.803558,383.355377 369.208984,382.969147 369.614410,382.582886 
	C368.536499,382.388397 367.407562,382.336914 366.389709,381.973969 
	C362.490326,380.583649 356.744507,381.974243 356.233673,375.237579 
	C356.196075,374.741425 353.995941,374.409241 352.423584,374.000732 
	C352.045990,369.419769 352.045990,364.838959 352.045990,358.626770 
	C380.468811,384.818115 407.925446,410.119171 436.403046,436.361023 
	C437.082245,435.187256 437.749420,434.034302 438.695801,432.710938 
	C438.757294,434.794800 438.539551,437.049103 438.159729,439.654236 
z"/>
<path fill="#E3E4E4" opacity="1.000000" stroke="none" 
	d="
M694.616638,263.989807 
	C694.411011,265.886597 694.381775,268.567993 693.135132,269.379822 
	C687.703064,272.917236 686.489563,278.189240 685.984131,283.974457 
	C685.914307,284.773804 685.533508,285.546021 685.148315,286.664795 
	C682.794922,287.450409 680.589844,287.902008 677.823730,288.684448 
	C673.508484,293.343109 669.754272,297.670959 666.000000,301.998779 
	C658.852478,303.605133 656.188049,309.791016 652.580750,315.047272 
	C651.818481,316.158051 650.603638,317.877899 649.697388,317.817444 
	C644.691772,317.483582 642.345703,321.335083 640.437744,324.400909 
	C637.162048,329.664490 631.495789,331.244293 627.168701,334.788025 
	C626.558167,335.287994 625.512573,335.288483 624.959534,335.822052 
	C618.351135,342.198151 611.889587,348.730804 605.145691,354.958374 
	C603.923584,356.086945 601.603333,356.026398 599.514648,356.588989 
	C599.534241,356.667725 599.745239,357.426666 599.908752,358.195740 
	C600.072388,358.965759 600.188599,359.745880 600.514709,361.592438 
	C598.745361,360.076569 597.774048,359.244415 596.097900,357.808350 
	C595.752075,359.873322 595.491394,361.430054 595.126465,363.609528 
	C593.791504,363.042206 592.588501,362.530975 591.048096,361.952881 
	C590.882446,361.279541 590.860840,360.468567 591.254333,360.096588 
	C600.528687,351.329102 609.847839,342.609009 619.593262,334.186401 
	C620.694397,334.935486 621.361023,335.378418 622.027649,335.821320 
	C622.209534,335.465057 622.391418,335.108765 622.573364,334.752502 
	C621.658386,334.457245 620.743347,334.162018 619.828369,333.866760 
	C621.046509,332.181274 622.043091,330.266174 623.516174,328.844849 
	C645.039978,308.076538 666.597107,287.342346 688.264893,266.724670 
	C689.776794,265.286041 692.221680,264.828003 694.616638,263.989807 
z"/>
<path fill="#DEDFE2" opacity="1.000000" stroke="none" 
	d="
M567.979919,559.001343 
	C565.813721,560.847595 562.993652,562.301147 561.604736,564.614136 
	C557.568604,571.335449 551.623291,575.741333 545.476746,580.252686 
	C541.909912,582.870605 539.608276,587.142456 536.376709,590.301025 
	C528.824280,597.682922 521.002197,604.788635 513.439026,612.159729 
	C512.505859,613.069153 512.483459,614.913025 511.217926,615.626160 
	C509.660950,617.296509 508.239899,619.125061 506.518219,620.603577 
	C503.119049,623.522705 499.517303,626.204468 496.068359,629.067505 
	C493.460602,631.232178 490.960114,633.526062 487.945953,636.171326 
	C487.745667,637.561707 487.393097,640.009216 486.998932,642.781921 
	C484.562500,640.875793 482.167633,638.644531 479.392151,636.058655 
	C510.784546,605.230347 541.915527,574.658813 573.663452,544.103394 
	C575.182556,545.746338 576.084656,547.373108 576.986694,548.999939 
	C576.487549,549.868469 575.988403,550.737000 575.044373,551.539124 
	C573.245911,551.561890 571.060913,551.176819 570.690430,551.826477 
	C569.439575,554.020020 568.832886,556.580933 567.979919,559.001343 
M507.269928,613.489319 
	C507.011841,613.734375 506.751282,613.977173 506.509216,614.237122 
	C506.502960,614.243835 506.698486,614.438477 506.799896,614.545471 
	C507.058105,614.300110 507.316315,614.054810 507.269928,613.489319 
z"/>
<path fill="#E4E4E3" opacity="1.000000" stroke="none" 
	d="
M466.459503,516.166748 
	C466.650909,513.557800 467.208862,510.906067 467.727722,508.246704 
	C468.191467,505.869904 461.993561,498.123749 459.509460,498.019135 
	C457.687653,497.942352 455.773926,498.337189 454.059174,497.900818 
	C452.266235,497.444580 450.092255,496.670166 449.071930,495.299866 
	C443.941589,488.409729 449.104248,476.956451 457.989441,476.027527 
	C459.037048,476.758087 459.665497,477.481476 460.079559,478.696411 
	C459.576782,481.791992 459.288391,484.395996 458.779266,487.015625 
	C458.307007,487.139404 458.055481,487.247589 457.803955,487.355835 
	C457.881165,487.468719 457.958344,487.581635 458.035461,487.694519 
	C458.356964,487.462982 458.678467,487.231476 459.348083,486.924866 
	C461.367920,485.458618 462.526703,482.401215 465.464966,485.303894 
	C466.033112,485.865173 467.294098,485.725128 468.235474,485.908569 
	C468.903046,486.992554 469.570618,488.076538 469.960449,489.577179 
	C469.584839,491.219757 469.486908,492.445740 469.389008,493.671692 
	C469.894867,493.774170 470.400696,493.876648 470.906525,493.979126 
	C471.372681,492.937683 471.838837,491.896271 472.304993,490.854858 
	C476.050568,493.700165 479.796204,496.545441 484.247437,499.926758 
	C478.078796,505.655151 472.443909,510.887878 466.459503,516.166748 
M469.699066,495.477631 
	C469.885315,495.466736 470.071533,495.455872 470.257782,495.445038 
	C470.133362,495.389435 470.008911,495.333832 469.699066,495.477631 
M465.440277,488.488098 
	C465.440277,488.488098 465.519226,488.446930 465.440277,488.488098 
M466.512390,493.440399 
	C466.512390,493.440399 466.553864,493.519684 466.512390,493.440399 
z"/>
<path fill="#DEDFE2" opacity="1.000000" stroke="none" 
	d="
M514.009766,440.983704 
	C512.994629,440.877777 511.925568,440.517456 510.975586,440.718842 
	C508.991394,441.139435 507.070068,441.856445 505.092163,442.143219 
	C514.723694,432.754486 524.417969,423.708038 534.039673,414.585052 
	C545.160950,404.040283 556.203003,393.411865 567.326233,382.869141 
	C568.481995,381.773712 569.955139,381.013062 571.609863,379.980042 
	C573.588989,381.361633 574.137024,382.692352 570.819153,383.767944 
	C568.170898,386.675934 566.085449,389.336151 564.000000,391.996338 
	C563.450500,392.175507 562.901062,392.354706 561.940430,392.946655 
	C561.352051,393.904633 561.174805,394.449890 560.997559,394.995117 
	C560.529297,396.562836 560.061035,398.130554 559.592773,399.698303 
	C559.337585,399.426086 559.082458,399.153870 558.827271,398.881683 
	C556.849121,400.873535 554.975769,402.986328 552.859985,404.819275 
	C551.143982,406.305939 549.258606,407.722656 547.213989,408.658112 
	C545.949646,409.236542 544.246643,408.856018 542.740540,408.905945 
	C543.149170,410.325226 543.557739,411.744537 544.213196,414.021179 
	C541.839783,415.165924 539.130066,416.472931 536.167358,417.901947 
	C537.208618,421.354309 536.479065,423.519440 532.333008,424.635803 
	C530.202332,425.209534 528.703125,428.128876 526.035156,430.908722 
	C523.729126,431.085724 518.157227,435.991791 516.995605,440.608704 
	C516.998047,440.999054 516.987793,440.995178 516.615662,440.993896 
	C515.498962,440.989655 514.754333,440.986694 514.009766,440.983704 
z"/>
<path fill="#E4E6E5" opacity="1.000000" stroke="none" 
	d="
M603.421631,563.119507 
	C602.397888,562.156921 601.707642,561.103821 601.074280,560.137451 
	C599.269348,561.498474 597.779846,562.621643 596.290405,563.744873 
	C594.872681,561.466919 592.536865,559.294983 592.258667,556.885437 
	C591.869263,553.513977 592.367004,547.274536 593.617493,546.974121 
	C598.217468,545.868774 603.299805,546.529968 608.165283,546.942932 
	C609.349304,547.043518 610.398438,548.732910 611.696777,549.853271 
	C610.704834,550.769836 609.838074,551.570740 608.557800,552.753784 
	C609.985657,553.165771 610.848572,553.414734 611.886536,553.899231 
	C609.292725,557.099487 606.523926,560.064209 603.421631,563.119507 
z"/>
<path fill="#E5E6E5" opacity="1.000000" stroke="none" 
	d="
M352.026123,675.058838 
	C356.211090,673.818787 354.932800,677.025574 354.942688,678.757019 
	C355.037781,695.383606 354.969299,712.011169 355.037994,728.638000 
	C355.046753,730.759766 355.238831,733.008484 355.989929,734.949097 
	C356.406158,736.024353 358.095184,736.702942 359.324097,737.341492 
	C360.619629,738.014587 362.252106,738.182617 363.327179,739.068848 
	C363.782959,739.444580 363.192719,741.089172 363.077881,742.157043 
	C361.598999,741.927673 360.119629,741.701477 358.641602,741.467041 
	C358.166901,741.391785 357.695679,741.294739 357.385773,741.237671 
	C355.806549,743.440125 354.316162,745.518738 352.428223,747.468201 
	C352.000854,723.364380 351.971039,699.389587 352.026123,675.058838 
z"/>
<path fill="#E3E4E4" opacity="1.000000" stroke="none" 
	d="
M577.338074,548.958130 
	C576.084656,547.373108 575.182556,545.746338 573.965332,543.985535 
	C579.204773,538.305298 584.759338,532.759094 590.938965,527.230652 
	C593.041016,527.830017 594.518066,528.411621 595.995117,528.993164 
	C592.442505,535.027527 590.862122,542.708618 582.305664,544.833496 
	C581.900635,544.763855 581.584595,544.749329 581.584595,544.749329 
	C581.584595,544.749329 581.997559,545.002441 581.997559,545.002441 
	C580.561523,546.307129 579.125488,547.611755 577.338074,548.958130 
z"/>
<path fill="#DEDFE2" opacity="1.000000" stroke="none" 
	d="
M596.319153,528.850464 
	C594.518066,528.411621 593.041016,527.830017 591.250977,527.110107 
	C598.251526,519.664856 605.565125,512.358032 613.162720,504.908325 
	C619.395874,505.574677 613.858154,509.876160 615.154968,511.064728 
	C612.858765,513.603210 610.968384,516.012146 608.753235,518.071899 
	C604.820435,521.728882 600.690613,525.174011 596.319153,528.850464 
z"/>
<path fill="#DEDFE2" opacity="1.000000" stroke="none" 
	d="
M480.051331,476.342590 
	C483.592560,474.798798 487.434174,473.104401 488.228790,479.395416 
	C488.304749,479.996887 489.563934,480.709808 490.386139,480.910339 
	C493.695984,481.717560 497.049957,482.343750 500.796753,483.061584 
	C499.748596,484.460632 498.291321,485.834869 496.260193,486.981995 
	C495.028320,487.721741 494.370239,488.688660 493.712158,489.655579 
	C489.217224,485.313141 484.722321,480.970734 480.051331,476.342590 
z"/>
<path fill="#E5E6E5" opacity="1.000000" stroke="none" 
	d="
M392.002319,560.553772 
	C391.426422,561.179993 390.888428,561.359619 389.775818,561.758423 
	C384.134125,561.318481 379.067078,560.659241 374.000000,560.000000 
	C376.175293,559.132202 378.350555,558.264343 380.775482,557.296936 
	C381.994965,555.574890 383.606720,553.298889 385.609558,551.260864 
	C386.000641,551.498779 386.001953,551.997559 386.154694,552.207153 
	C386.870880,552.277771 387.434326,552.138916 387.998901,552.000000 
	C388.000000,552.000000 388.001221,551.997559 388.001221,551.997559 
	C389.128479,552.307739 390.255737,552.617920 391.733826,552.964783 
	C392.069824,555.369995 392.055023,557.738586 392.002319,560.553772 
z"/>
<path fill="#E7E7E7" opacity="1.000000" stroke="none" 
	d="
M655.849243,744.585815 
	C655.169067,742.969177 654.243774,740.968506 654.071350,738.904907 
	C653.737549,734.911743 654.837280,730.766052 650.693909,727.671082 
	C649.755005,726.969727 650.187134,723.609741 650.847229,721.784058 
	C651.831787,719.060791 653.579102,716.613159 655.368530,714.024658 
	C655.804932,724.058533 655.874573,734.115906 655.849243,744.585815 
z"/>
<path fill="#DEDFE2" opacity="1.000000" stroke="none" 
	d="
M636.648682,430.029297 
	C638.379578,434.441315 637.652771,437.810272 632.527405,439.521057 
	C631.360107,439.910675 630.846130,442.090820 629.902161,443.349854 
	C627.708191,446.276001 625.572754,449.523376 620.864075,446.254974 
	C625.796997,440.717438 631.065063,435.435059 636.648682,430.029297 
z"/>
<path fill="#E3E3E2" opacity="1.000000" stroke="none" 
	d="
M495.942749,651.692078 
	C498.991486,649.779907 498.991486,649.779907 502.088013,653.027344 
	C506.152771,651.943787 509.828003,650.964111 513.868103,650.039062 
	C511.182037,653.676636 508.131104,657.259399 505.000793,660.935364 
	C501.670288,657.602478 498.866882,654.796997 495.942749,651.692078 
z"/>
<path fill="#DEDFE2" opacity="1.000000" stroke="none" 
	d="
M382.997192,364.582489 
	C384.451111,363.661499 386.921265,362.103943 387.421600,362.586914 
	C391.174438,366.209686 394.617889,370.169678 397.946106,374.199280 
	C398.495941,374.864960 398.009186,376.386841 397.960266,377.853577 
	C392.979736,373.759735 388.040466,369.325317 382.997192,364.582489 
z"/>
<path fill="#DEDFE2" opacity="1.000000" stroke="none" 
	d="
M606.363647,459.731049 
	C607.302612,461.024750 607.900940,462.369141 608.591614,463.921051 
	C605.535034,467.218567 602.444214,470.657562 599.204529,473.949982 
	C598.631958,474.531830 597.437439,474.501709 596.530151,474.754211 
	C596.248352,473.501404 595.966614,472.248596 595.888306,470.458374 
	C599.402100,466.541229 602.712524,463.161469 606.363647,459.731049 
z"/>
<path fill="#DEDFE2" opacity="1.000000" stroke="none" 
	d="
M619.696289,446.629761 
	C624.073975,449.854889 622.287659,452.624603 619.126709,455.275604 
	C618.376343,455.904968 617.493591,456.462555 616.959412,457.248627 
	C614.622864,460.686768 612.414978,460.618866 609.875610,456.994354 
	C611.373718,454.892639 613.186279,452.982635 615.665283,450.995300 
	C617.005371,450.712494 617.679016,450.507050 618.352661,450.301636 
	C618.122559,449.818481 617.892456,449.335327 617.662415,448.852173 
	C618.254517,448.147675 618.846680,447.443176 619.696289,446.629761 
z"/>
<path fill="#E3E3E2" opacity="1.000000" stroke="none" 
	d="
M530.671997,632.149780 
	C531.318359,632.080017 531.631836,632.156799 532.403931,632.388306 
	C528.511780,636.643982 524.160950,640.744873 519.493286,644.955444 
	C519.000549,644.074951 518.388733,642.891174 518.727112,642.129333 
	C519.943726,639.389893 521.481140,636.792908 522.948120,634.046936 
	C525.124573,633.531433 527.731873,632.913818 530.671997,632.149780 
z"/>
<path fill="#E7E7E7" opacity="1.000000" stroke="none" 
	d="
M478.870697,574.691772 
	C477.955170,575.022461 476.508026,575.499573 475.928711,574.989990 
	C471.331116,570.946106 466.870880,566.743042 462.472046,562.481934 
	C462.149414,562.169373 462.637085,561.020325 463.034241,560.055237 
	C468.460663,564.693909 473.600922,569.537476 478.870697,574.691772 
z"/>
<path fill="#E5E6E5" opacity="1.000000" stroke="none" 
	d="
M661.263916,330.156494 
	C659.685242,328.897705 658.372681,327.503448 657.060181,326.109192 
	C658.558472,324.960083 659.906067,323.291199 661.595581,322.801208 
	C663.460327,322.260315 665.638733,322.800537 668.066528,323.030731 
	C666.145142,325.468109 663.837585,327.744598 661.263916,330.156494 
z"/>
<path fill="#DEDFE2" opacity="1.000000" stroke="none" 
	d="
M650.387695,340.037079 
	C650.048157,338.829010 650.015625,337.496521 650.011597,336.163940 
	C649.990173,329.060913 650.773560,328.604828 657.854736,331.945435 
	C655.709229,334.705200 653.208557,337.308899 650.387695,340.037079 
z"/>
<path fill="#E3E3E2" opacity="1.000000" stroke="none" 
	d="
M458.538147,523.975891 
	C457.245026,523.638367 456.270752,523.198242 455.296478,522.758057 
	C455.883118,521.879944 456.441772,520.981323 457.064148,520.129333 
	C457.695984,519.264404 458.610870,518.539734 459.018250,517.589233 
	C460.474792,514.190308 462.358124,514.395264 464.946899,516.916870 
	C463.123230,519.373047 460.990112,521.623169 458.538147,523.975891 
z"/>
<path fill="#E3E3E2" opacity="1.000000" stroke="none" 
	d="
M468.108887,485.590973 
	C467.294098,485.725128 466.033112,485.865173 465.464966,485.303894 
	C462.526703,482.401215 461.367920,485.458618 459.348083,486.924866 
	C459.288391,484.395996 459.576782,481.791992 460.186188,478.967773 
	C462.998901,480.922852 465.490570,483.098114 468.108887,485.590973 
z"/>
<path fill="#DEDFE2" opacity="1.000000" stroke="none" 
	d="
M488.096985,644.416016 
	C488.881287,643.057617 489.806946,641.988037 490.863037,640.767822 
	C492.725830,642.253418 494.239380,643.460510 495.725098,644.645447 
	C494.993225,645.776001 494.120544,647.124146 493.104675,648.775757 
	C491.387115,647.621155 489.812744,646.163025 488.096985,644.416016 
z"/>
<path fill="#E3E3E2" opacity="1.000000" stroke="none" 
	d="
M446.744812,425.290710 
	C446.857117,432.860291 446.403015,433.358734 439.965942,432.288574 
	C441.856659,429.843689 444.146271,427.625702 446.744812,425.290710 
z"/>
<path fill="#DEDFE2" opacity="1.000000" stroke="none" 
	d="
M391.002930,468.990479 
	C391.003754,468.551788 391.004608,468.113129 391.005798,467.345825 
	C393.797211,467.689270 396.715027,468.049194 399.345367,469.117157 
	C402.237671,470.291443 400.863220,472.076752 399.127899,473.865845 
	C396.931335,472.460815 394.940277,470.765381 392.395660,469.051514 
	C391.563629,469.000977 391.283905,468.986755 391.002930,468.990479 
z"/>
<path fill="#E3E3E2" opacity="1.000000" stroke="none" 
	d="
M458.577576,475.556702 
	C458.074493,472.852936 457.798981,469.920837 457.628967,466.982697 
	C457.606476,466.594299 458.121643,466.174744 458.931305,464.942230 
	C460.012909,467.214233 460.854614,468.982300 461.935425,470.916687 
	C461.062378,472.497528 459.950195,473.912018 458.577576,475.556702 
z"/>
<path fill="#DEDFE2" opacity="1.000000" stroke="none" 
	d="
M392.181671,481.637878 
	C391.710785,478.653351 391.358612,475.285217 391.176514,471.460388 
	C391.346558,471.003693 391.688751,470.988922 391.688751,470.988922 
	C391.688751,470.988922 392.031067,471.000061 392.031067,471.000061 
	C392.120850,474.418121 392.210602,477.836212 392.181671,481.637878 
z"/>
<path fill="#E7E7E7" opacity="1.000000" stroke="none" 
	d="
M347.656677,263.861572 
	C346.445374,264.792328 344.877258,265.621429 343.141052,266.756531 
	C342.054596,266.183502 341.136261,265.304474 339.522583,263.759888 
	C342.679993,263.759888 344.989929,263.759888 347.656677,263.861572 
z"/>
<path fill="#DEDFE2" opacity="1.000000" stroke="none" 
	d="
M443.694824,540.703491 
	C440.743622,540.944946 437.714142,540.829468 438.108063,536.035767 
	C439.951630,537.218140 441.762207,538.809875 443.694824,540.703491 
z"/>
<path fill="#E7E7E7" opacity="1.000000" stroke="none" 
	d="
M574.516357,490.677246 
	C576.497131,495.492920 576.147949,495.925018 570.811523,494.960999 
	C571.680542,493.551788 572.942261,492.190857 574.516357,490.677246 
z"/>
<path fill="#E7E7E7" opacity="1.000000" stroke="none" 
	d="
M472.245880,490.598816 
	C471.838837,491.896271 471.372681,492.937683 470.906525,493.979126 
	C470.400696,493.876648 469.894867,493.774170 469.389008,493.671692 
	C469.486908,492.445740 469.584839,491.219757 470.003967,489.922668 
	C470.945740,490.015289 471.566254,490.179016 472.245880,490.598816 
z"/>
<path fill="#E7E7E7" opacity="1.000000" stroke="none" 
	d="
M434.956207,376.479279 
	C434.883759,377.385620 434.685852,377.985870 434.243958,378.793671 
	C432.966766,377.106171 431.933502,375.211151 431.011841,373.017639 
	C432.359192,373.870514 433.594940,375.021851 434.956207,376.479279 
z"/>
<path fill="#E4E4E3" opacity="1.000000" stroke="none" 
	d="
M525.619385,400.532562 
	C524.587769,397.695038 526.025757,396.398621 529.307983,396.301025 
	C528.462769,397.703125 527.188965,399.027557 525.619385,400.532562 
z"/>
<path fill="#DEDFE2" opacity="1.000000" stroke="none" 
	d="
M392.370178,489.685242 
	C392.051636,488.801270 391.820374,487.583801 391.832214,486.168335 
	C392.202667,487.097504 392.330048,488.224640 392.370178,489.685242 
z"/>
<path fill="#E3E3E2" opacity="1.000000" stroke="none" 
	d="
M444.634338,421.477661 
	C445.518921,421.942535 446.528015,422.706024 447.337372,423.709839 
	C446.344727,423.225494 445.551758,422.500885 444.634338,421.477661 
z"/>
<path fill="#DEDFE2" opacity="1.000000" stroke="none" 
	d="
M448.824677,545.708374 
	C447.936768,545.282349 446.965607,544.563782 445.974670,543.493958 
	C446.883759,543.900391 447.812561,544.658081 448.824677,545.708374 
z"/>
<path fill="#E4E4E3" opacity="1.000000" stroke="none" 
	d="
M509.127380,380.828735 
	C509.708008,381.490540 510.165924,382.157410 510.623840,382.824280 
	C510.087738,382.514404 509.551636,382.204529 508.917175,381.573822 
	C508.818787,381.252991 509.004669,380.833740 509.127380,380.828735 
z"/>
<path fill="#E7E7E7" opacity="1.000000" stroke="none" 
	d="
M493.727844,489.633301 
	C494.370239,488.688660 495.028320,487.721741 495.910400,487.014709 
	C495.765503,487.677673 495.396606,488.080811 494.632416,488.877930 
	C494.077576,489.401733 493.917969,489.531616 493.758362,489.661469 
	C493.758362,489.661469 493.743561,489.611053 493.727844,489.633301 
z"/>
<path fill="#E3E3E2" opacity="1.000000" stroke="none" 
	d="
M454.225098,550.997070 
	C453.748657,551.585022 453.190521,551.944885 452.632385,552.304810 
	C452.679291,551.716858 452.726166,551.128967 452.895752,550.250000 
	C453.393433,550.229004 453.768433,550.499023 454.225098,550.997070 
z"/>
<path fill="#E4E6E5" opacity="1.000000" stroke="none" 
	d="
M617.384155,448.958466 
	C617.892456,449.335327 618.122559,449.818481 618.352661,450.301636 
	C617.679016,450.507050 617.005371,450.712494 615.973450,450.893188 
	C616.112061,450.267212 616.608948,449.665985 617.384155,448.958466 
z"/>
<path fill="#E7E7E7" opacity="1.000000" stroke="none" 
	d="
M334.432922,756.218018 
	C334.487061,755.451416 334.930481,754.782349 335.697815,754.056519 
	C335.621918,754.771729 335.222076,755.543640 334.432922,756.218018 
z"/>
<path fill="#E7E7E7" opacity="1.000000" stroke="none" 
	d="
M378.811615,263.911987 
	C378.423340,264.155975 377.858124,264.279144 377.142487,264.191498 
	C377.539612,263.917511 378.087128,263.854309 378.811615,263.911987 
z"/>
<path fill="#E7E7E7" opacity="1.000000" stroke="none" 
	d="
M352.013367,538.330566 
	C352.572449,538.319702 353.045990,538.638123 353.519531,538.956543 
	C353.230255,539.271179 352.940979,539.585815 352.375732,539.949524 
	C352.042450,539.552307 351.985138,539.106079 352.013367,538.330566 
z"/>
<path fill="#DEDFE2" opacity="1.000000" stroke="none" 
	d="
M608.494995,457.614807 
	C608.355164,458.260193 607.884460,458.995422 607.042297,459.721680 
	C607.168579,459.043304 607.666382,458.373993 608.494995,457.614807 
z"/>
<path fill="#E7E7E7" opacity="1.000000" stroke="none" 
	d="
M392.109924,470.486633 
	C392.031067,471.000061 391.688751,470.988922 391.688751,470.988922 
	C391.688751,470.988922 391.346558,471.003693 391.175476,471.007690 
	C391.003082,470.562622 391.001770,470.113495 391.001709,469.327454 
	C391.283905,468.986755 391.563629,469.000977 391.972595,468.985443 
	C392.131622,469.282898 392.160187,469.628052 392.109924,470.486633 
z"/>
<path fill="#B8BAB9" opacity="1.000000" stroke="none" 
	d="
M655.807861,412.764648 
	C655.395264,413.057892 655.017334,413.056946 654.356201,413.040131 
	C654.662903,412.839691 655.252686,412.655090 655.807861,412.764648 
z"/>
<path fill="#DEDFE2" opacity="1.000000" stroke="none" 
	d="
M493.960419,489.766113 
	C493.917969,489.531616 494.077576,489.401733 494.513428,489.134277 
	C494.580597,489.288025 494.371552,489.579407 493.960419,489.766113 
z"/>
<path fill="#E7E7E7" opacity="1.000000" stroke="none" 
	d="
M252.755768,263.795654 
	C252.726746,264.002655 252.445297,264.098328 252.072556,264.028412 
	C252.155273,263.803314 252.329315,263.743805 252.755768,263.795654 
z"/>
<path fill="#E7E7E7" opacity="1.000000" stroke="none" 
	d="
M753.749756,263.948486 
	C753.729370,264.119049 753.460449,264.214996 753.096802,264.163574 
	C753.168396,263.968719 753.334778,263.921295 753.749756,263.948486 
z"/>
<path fill="#DEDFE2" opacity="1.000000" stroke="none" 
	d="
M437.379089,534.824280 
	C437.340057,534.905273 437.213989,534.827820 437.187286,534.802246 
	C437.160583,534.776611 437.418091,534.743286 437.379089,534.824280 
z"/>
<path fill="#E5E6E5" opacity="1.000000" stroke="none" 
	d="
M373.600006,560.000000 
	C379.067078,560.659241 384.134125,561.318481 389.600586,561.988892 
	C390.000000,607.443237 390.025726,652.886597 389.931061,698.329651 
	C389.925842,700.846069 388.797943,703.342163 388.426727,705.881958 
	C388.167450,707.655701 388.208221,709.492249 388.286346,711.293335 
	C388.824402,723.702332 389.505676,736.106140 389.914154,748.519165 
	C390.030212,752.045410 388.315613,753.382202 384.397125,752.459900 
	C380.988007,751.657532 377.467834,751.945007 376.974884,747.190796 
	C376.894958,746.420166 375.806244,745.291443 375.019531,745.130310 
	C368.951813,743.887451 368.524414,738.818848 368.252014,734.357178 
	C367.981964,729.934326 366.536987,725.193970 370.142670,720.978699 
	C371.352264,719.564636 371.457764,716.703186 371.185425,714.618530 
	C370.354248,708.256409 368.381439,701.974365 368.167664,695.617004 
	C367.850616,686.189148 368.953339,676.722412 368.921021,667.273987 
	C368.877319,654.494202 368.330811,641.716125 368.000000,628.468628 
	C368.000000,607.738708 367.950562,587.477173 368.071472,567.216614 
	C368.084473,565.034241 369.086578,562.857788 369.814941,560.339294 
	C371.066681,560.000000 372.133331,560.000000 373.600006,560.000000 
z"/>
<path fill="#E5E7E6" opacity="1.000000" stroke="none" 
	d="
M480.000000,441.463043 
	C484.394714,442.848267 488.795013,444.868195 493.431641,440.300873 
	C492.572876,439.960205 491.830048,439.665527 490.513519,439.143280 
	C492.028381,438.484619 492.624481,438.028107 492.833374,438.164490 
	C495.524872,439.922333 499.457428,439.863953 500.494476,444.174103 
	C500.794098,445.419556 503.590424,446.064301 505.621155,447.243713 
	C506.000153,447.502991 506.000275,448.002441 506.038086,448.283966 
	C506.717377,448.710327 507.358795,448.855164 508.403320,448.999756 
	C514.672913,449.540253 514.060425,443.458618 516.987793,440.995178 
	C516.987793,440.995178 516.998047,440.999054 516.996582,440.993134 
	C519.407043,440.286163 521.782898,439.329529 524.244690,438.981781 
	C525.675293,438.779694 528.067139,439.061371 528.613525,439.972595 
	C531.601990,444.956512 530.080322,447.838013 524.425903,449.155090 
	C522.340637,449.640808 520.354126,450.582855 518.358582,451.404114 
	C517.638306,451.700562 517.023315,452.252655 515.855164,453.019836 
	C517.726318,455.006531 519.353455,456.734100 520.958740,458.438507 
	C513.005127,464.245209 504.815979,468.509674 494.834686,468.036591 
	C490.485077,467.830444 486.951416,466.866333 486.080475,461.870331 
	C485.969574,461.234009 485.773773,460.379211 485.316925,460.071442 
	C478.497223,455.477295 480.127777,448.449310 480.000000,441.463043 
M497.197357,444.372559 
	C496.532959,444.807434 495.868530,445.242310 495.204102,445.677155 
	C496.066803,446.734375 496.929474,447.791565 497.792175,448.848785 
	C498.178589,448.602539 498.565033,448.356293 498.951477,448.110077 
	C498.545135,447.008087 498.138794,445.906097 497.197357,444.372559 
z"/>
<path fill="#E5E6E5" opacity="1.000000" stroke="none" 
	d="
M422.336975,462.004395 
	C424.769257,462.009705 426.774719,461.854950 428.742462,462.060822 
	C432.899811,462.495728 435.286041,464.933441 435.951782,469.040253 
	C436.056763,469.687714 436.075317,470.375641 435.984650,471.023987 
	C435.512421,474.401337 437.644135,478.640625 433.099915,480.704163 
	C430.064728,482.082428 422.393951,480.050110 420.271057,477.120911 
	C417.583679,473.412903 415.765656,469.171021 417.568878,464.589478 
	C418.055511,463.353119 420.400879,462.848358 422.336975,462.004395 
z"/>
<path fill="#E5E6E5" opacity="1.000000" stroke="none" 
	d="
M666.356079,302.047058 
	C669.754272,297.670959 673.508484,293.343109 677.631348,289.007629 
	C679.457825,291.448425 680.915710,293.896881 682.748352,296.974762 
	C681.595520,296.739655 679.990173,296.299591 678.355774,296.109283 
	C676.561279,295.900360 674.740112,295.921509 672.930542,295.842407 
	C672.929016,297.022736 672.835815,298.211884 672.947754,299.381348 
	C673.111755,301.095612 673.422729,302.795807 673.671021,304.501984 
	C671.927856,304.000458 670.174500,303.530457 668.446777,302.980377 
	C667.836487,302.786041 667.288574,302.395996 666.356079,302.047058 
z"/>
<path fill="#E3E4E4" opacity="1.000000" stroke="none" 
	d="
M568.368652,558.999756 
	C568.832886,556.580933 569.439575,554.020020 570.690430,551.826477 
	C571.060913,551.176819 573.245911,551.561890 574.804810,551.718750 
	C575.127991,556.266907 573.318420,558.855591 568.368652,558.999756 
z"/>
<path fill="#E3E4E4" opacity="1.000000" stroke="none" 
	d="
M564.000000,391.998169 
	C566.085449,389.336151 568.170898,386.675934 570.617188,384.002441 
	C570.320374,387.380554 569.662842,390.771973 565.103027,392.001221 
	C564.493530,392.003540 564.003662,392.001221 564.003662,392.001221 
	C564.003662,392.001221 564.000000,392.000000 564.000000,391.998169 
z"/>
<path fill="#E5E6E5" opacity="1.000000" stroke="none" 
	d="
M386.001953,551.997559 
	C386.001953,551.997559 386.000641,551.498779 386.000305,551.249390 
	C386.310028,550.507446 386.620087,550.014893 386.930145,549.522339 
	C387.282196,550.131470 387.634216,550.740662 387.993713,551.673706 
	C388.001221,551.997559 388.000000,552.000000 387.666260,552.000122 
	C386.889008,551.999329 386.445465,551.998413 386.001953,551.997559 
z"/>
<path fill="#E3E4E4" opacity="1.000000" stroke="none" 
	d="
M561.279907,394.958649 
	C561.174805,394.449890 561.352051,393.904633 561.759399,393.179108 
	C561.847046,393.639954 561.704712,394.281067 561.279907,394.958649 
z"/>
<path fill="#E4E6E5" opacity="1.000000" stroke="none" 
	d="
M566.467712,501.520142 
	C566.446838,501.480194 566.488586,501.560059 566.467712,501.520142 
z"/>
<path fill="#DEDFE2" opacity="1.000000" stroke="none" 
	d="
M564.096436,392.149475 
	C564.003662,392.001221 564.493530,392.003540 564.738220,392.004486 
	C564.718323,392.102875 564.453796,392.200317 564.096436,392.149475 
z"/>
<path fill="#E7E7E7" opacity="1.000000" stroke="none" 
	d="
M616.625244,466.342010 
	C617.148926,465.103668 617.877258,464.076538 618.605591,463.049377 
	C619.003906,463.408539 619.402283,463.767700 619.800659,464.126862 
	C618.810364,464.935638 617.820129,465.744415 616.625244,466.342010 
z"/>
<path fill="#E4E4E3" opacity="1.000000" stroke="none" 
	d="
M518.262329,377.514038 
	C518.114624,378.333984 517.739624,378.947205 517.364624,379.560425 
	C516.982727,379.157379 516.600830,378.754333 516.218933,378.351288 
	C516.824280,378.003296 517.429626,377.655304 518.262329,377.514038 
z"/>
<path fill="#E4E4E3" opacity="1.000000" stroke="none" 
	d="
M522.370361,402.480499 
	C522.134766,402.369934 521.949280,402.196655 521.763794,402.023376 
	C521.937134,402.018250 522.110474,402.013123 522.414429,402.162231 
	C522.544983,402.316498 522.420410,402.417786 522.370361,402.480499 
z"/>
<path fill="#E5E6E5" opacity="1.000000" stroke="none" 
	d="
M390.531982,753.480469 
	C390.552277,753.519409 390.511719,753.441528 390.531982,753.480469 
z"/>
<path fill="#E3E3E2" opacity="1.000000" stroke="none" 
	d="
M380.383789,397.454834 
	C380.048981,396.666229 379.998047,395.999298 379.947083,395.332397 
	C380.510254,395.506805 381.073395,395.681213 381.636566,395.855621 
	C381.313599,396.429260 380.990601,397.002899 380.383789,397.454834 
z"/>
<path fill="#E7E7E7" opacity="1.000000" stroke="none" 
	d="
M506.000275,448.002441 
	C506.000275,448.002441 506.000153,447.502991 506.000671,447.253296 
	C508.501770,445.151459 511.002319,443.299316 513.756348,441.215454 
	C514.754333,440.986694 515.498962,440.989655 516.615662,440.993896 
	C514.060425,443.458618 514.672913,449.540253 508.223450,448.768127 
	C507.093750,448.358673 506.546997,448.180542 506.000275,448.002441 
z"/>
<path fill="#E7E7E7" opacity="1.000000" stroke="none" 
	d="
M549.348633,612.420898 
	C548.944702,612.315369 548.700134,612.058105 548.455627,611.800842 
	C548.562195,611.699829 548.756042,611.505066 548.762756,611.511292 
	C549.021851,611.752502 549.263794,612.012146 549.348633,612.420898 
z"/>
<path fill="#E3E3E2" opacity="1.000000" stroke="none" 
	d="
M532.418579,629.770569 
	C532.457092,629.746765 532.379944,629.794434 532.418579,629.770569 
z"/>
<path fill="#E7E7E7" opacity="1.000000" stroke="none" 
	d="
M619.891418,333.911957 
	C620.743347,334.162018 621.658386,334.457245 622.573364,334.752502 
	C622.391418,335.108765 622.209534,335.465057 622.027649,335.821320 
	C621.361023,335.378418 620.694397,334.935486 619.946594,334.161377 
	C619.865417,333.830170 619.954468,333.957153 619.891418,333.911957 
z"/>
<path fill="#E7E7E7" opacity="1.000000" stroke="none" 
	d="
M507.422241,613.649414 
	C507.316315,614.054810 507.058105,614.300110 506.799896,614.545471 
	C506.698486,614.438477 506.502960,614.243835 506.509216,614.237122 
	C506.751282,613.977173 507.011841,613.734375 507.422241,613.649414 
z"/>
<path fill="#E3E3E2" opacity="1.000000" stroke="none" 
	d="
M458.779236,487.015594 
	C458.678467,487.231476 458.356964,487.462982 458.035461,487.694519 
	C457.958344,487.581635 457.881165,487.468719 457.803955,487.355835 
	C458.055481,487.247589 458.307007,487.139404 458.779236,487.015594 
z"/>
<path fill="#E7E7E7" opacity="1.000000" stroke="none" 
	d="
M469.791748,495.377930 
	C470.008911,495.333832 470.133362,495.389435 470.257782,495.445007 
	C470.071533,495.455872 469.885315,495.466736 469.791748,495.377930 
z"/>
<path fill="#E3E3E2" opacity="1.000000" stroke="none" 
	d="
M465.479736,488.467529 
	C465.519226,488.446930 465.440277,488.488098 465.479736,488.467529 
z"/>
<path fill="#E7E7E7" opacity="1.000000" stroke="none" 
	d="
M466.533142,493.480042 
	C466.553864,493.519684 466.512390,493.440399 466.533142,493.480042 
z"/>
<path fill="#E7E7E7" opacity="1.000000" stroke="none" 
	d="
M581.998779,545.001221 
	C581.997559,545.002441 581.584595,544.749329 581.584595,544.749329 
	C581.584595,544.749329 581.900635,544.763855 581.951538,544.880737 
	C582.002441,544.997559 582.000000,545.000000 581.998779,545.001221 
z"/>
<path fill="#E7E7E7" opacity="1.000000" stroke="none" 
	d="
M386.154694,552.207092 
	C386.445465,551.998413 386.889008,551.999329 387.665161,552.000122 
	C387.434326,552.138916 386.870880,552.277771 386.154694,552.207092 
z"/>
<path fill="#E4E4E3" opacity="1.000000" stroke="none" 
	d="
M497.464905,444.588318 
	C498.138794,445.906097 498.545135,447.008087 498.951477,448.110077 
	C498.565033,448.356293 498.178589,448.602539 497.792175,448.848785 
	C496.929474,447.791565 496.066803,446.734375 495.204102,445.677185 
	C495.868530,445.242310 496.532959,444.807434 497.464905,444.588318 
z"/>
<path fill="#E4E4E3" opacity="1.000000" stroke="none" 
	d="
M506.038086,448.283966 
	C506.546997,448.180542 507.093750,448.358673 507.820374,448.768372 
	C507.358795,448.855164 506.717377,448.710327 506.038086,448.283966 
z"/>
</svg>